<svg xmlns="http://www.w3.org/2000/svg" xmlns:xlink="http://www.w3.org/1999/xlink" width="101" height="101" viewBox="0 0 101 101">
  <defs>
    <clipPath id="clip-path">
      <rect id="Rectángulo_37310" data-name="Rectángulo 37310" width="61" height="61" transform="translate(761.518 5310.415)" fill="#fff"/>
    </clipPath>
  </defs>
  <g id="Grupo_157556" data-name="Grupo 157556" transform="translate(-750 -5125)">
    <circle id="Elipse_5093" data-name="Elipse 5093" cx="50.5" cy="50.5" r="50.5" transform="translate(750 5125)" fill="#ffc8bf"/>
    <g id="Enmascarar_grupo_294" data-name="Enmascarar grupo 294" transform="translate(8.482 -165.414)" clip-path="url(#clip-path)">
      <g id="ley_1_" data-name="ley(1)" transform="translate(762 5312.37)">
        <g id="Grupo_110852" data-name="Grupo 110852" transform="translate(12.53 36.677)">
          <g id="Grupo_110843" data-name="Grupo 110843" transform="translate(0 3.294)">
            <path id="Trazado_167498" data-name="Trazado 167498" d="M19.367,53.158c0,4.663,2.214,6.9,2.214,6.9H16.775a1.2,1.2,0,0,1-.98-.5,10.957,10.957,0,0,1-1.812-6.4,10.959,10.959,0,0,1,1.812-6.4,1.2,1.2,0,0,1,.98-.5h4.805s-2.214,2.242-2.214,6.906Z" transform="translate(-13.984 -46.251)" fill="#fc8116"/>
            <path id="Trazado_167499" data-name="Trazado 167499" d="M21.581,46.252s-2.151,2.178-2.213,6.708L14.86,57.842a12.125,12.125,0,0,1-.876-4.684,10.959,10.959,0,0,1,1.812-6.4,1.2,1.2,0,0,1,.98-.5h4.805Z" transform="translate(-13.984 -46.251)" fill="#c45e04"/>
            <path id="Trazado_167500" data-name="Trazado 167500" d="M56.862,53.157a10.486,10.486,0,0,0,2.517,6.906H20.857s-2.214-2.242-2.214-6.906,2.214-6.906,2.214-6.906H59.38A10.486,10.486,0,0,0,56.862,53.157Z" transform="translate(-14.468 -46.251)" fill="#e0d3ce"/>
            <g id="Grupo_110842" data-name="Grupo 110842" transform="translate(4.175 0)">
              <path id="Trazado_167501" data-name="Trazado 167501" d="M26.044,46.252l-7.361,7.974c-.025-.341-.04-.7-.04-1.068,0-4.664,2.214-6.906,2.214-6.906Z" transform="translate(-18.643 -46.252)" fill="#cdbfbb"/>
              <path id="Trazado_167502" data-name="Trazado 167502" d="M60.766,53.158a10.485,10.485,0,0,0,2.517,6.905H58.719a10.729,10.729,0,0,1,0-13.811h4.565A10.481,10.481,0,0,0,60.766,53.158Z" transform="translate(-22.546 -46.252)" fill="#cdbfbb"/>
            </g>
          </g>
          <g id="Grupo_110847" data-name="Grupo 110847" transform="translate(5.198)">
            <g id="Grupo_110845" data-name="Grupo 110845" transform="translate(0)">
              <path id="Trazado_167503" data-name="Trazado 167503" d="M62.092,44.581a2,2,0,0,1-2,2h-38.3a2,2,0,0,1,0-4.009h38.3A2,2,0,0,1,62.092,44.581Z" transform="translate(-19.784 -42.575)" fill="#fc8116"/>
              <g id="Grupo_110844" data-name="Grupo 110844">
                <path id="Trazado_167504" data-name="Trazado 167504" d="M29.2,42.575l-3.7,4.009H21.789a2,2,0,0,1,0-4.009Z" transform="translate(-19.784 -42.575)" fill="#fc8116"/>
                <path id="Trazado_167505" data-name="Trazado 167505" d="M66.316,44.58a2.007,2.007,0,0,1-2.006,2.006H60.423a2,2,0,0,0,0-4.01h3.888A2,2,0,0,1,66.316,44.58Z" transform="translate(-24.008 -42.575)" fill="#fc8116"/>
              </g>
            </g>
            <g id="Grupo_110846" data-name="Grupo 110846" transform="translate(0 16.39)">
              <path id="Trazado_167506" data-name="Trazado 167506" d="M60.087,64.875h-38.3a2,2,0,1,1,0-4.009h38.3a2,2,0,1,1,0,4.009Z" transform="translate(-19.784 -60.866)" fill="#fc8116"/>
              <path id="Trazado_167507" data-name="Trazado 167507" d="M66.316,62.87a2,2,0,0,1-2.006,2H60.423a2,2,0,1,0,0-4.008h3.888A2,2,0,0,1,66.316,62.87Z" transform="translate(-24.008 -60.866)" fill="#fc8116"/>
            </g>
          </g>
          <g id="Grupo_110851" data-name="Grupo 110851" transform="translate(4.223 7.221)">
            <g id="Grupo_110848" data-name="Grupo 110848">
              <path id="Trazado_167508" data-name="Trazado 167508" d="M37.87,51.54a.905.905,0,0,1-.906.906H18.7a12.494,12.494,0,0,1,.281-1.812H36.964A.906.906,0,0,1,37.87,51.54Z" transform="translate(-18.697 -50.634)" fill="#cdbfbb"/>
            </g>
            <g id="Grupo_110849" data-name="Grupo 110849" transform="translate(24.826 0)">
              <path id="Trazado_167509" data-name="Trazado 167509" d="M60.158,50.634a10.7,10.7,0,0,0-.349,1.812h-12.5a.906.906,0,0,1,0-1.812H60.158Z" transform="translate(-46.403 -50.634)" fill="#cdbfbb"/>
            </g>
            <g id="Grupo_110850" data-name="Grupo 110850" transform="translate(6.781 4.116)">
              <path id="Trazado_167510" data-name="Trazado 167510" d="M48.277,57.039H27.17a.906.906,0,0,1,0-1.812H48.277a.906.906,0,0,1,0,1.812Z" transform="translate(-26.265 -55.227)" fill="#cdbfbb"/>
            </g>
          </g>
        </g>
        <g id="Grupo_110861" data-name="Grupo 110861" transform="translate(0 0)">
          <g id="Grupo_110855" data-name="Grupo 110855" transform="translate(0 23.035)">
            <g id="Grupo_110853" data-name="Grupo 110853" transform="translate(0 7.668)">
              <path id="Trazado_167511" data-name="Trazado 167511" d="M26.387,39.144l-3.236-3.236L1.122,56.244a3.488,3.488,0,1,0,4.929,4.929Z" transform="translate(0 -35.908)" fill="#873f30"/>
              <path id="Trazado_167512" data-name="Trazado 167512" d="M5.974,61.39a3.49,3.49,0,0,1-4.932,0A3.454,3.454,0,0,1,.191,60a3.483,3.483,0,0,0,3.54-.848c.033-.033.067-.069.1-.1l20.336-22.03,2.241,2.241L6.071,61.289c-.032.034-.065.069-.1.1Z" transform="translate(-0.02 -36.023)" fill="#6c3328"/>
            </g>
            <path id="Trazado_167513" data-name="Trazado 167513" d="M32.14,27.351l-7.452,8.889,3.044,3.044,8.889-7.452Z" transform="translate(-2.566 -27.351)" fill="#873f30"/>
            <path id="Trazado_167514" data-name="Trazado 167514" d="M32.279,27.351l-2.408,2.872.723.723a1.362,1.362,0,0,1,0,1.926l-4.567,4.567,1.845,1.845,8.889-7.452Z" transform="translate(-2.705 -27.351)" fill="#6c3328"/>
            <g id="Grupo_110854" data-name="Grupo 110854" transform="translate(19.657 7.069)">
              <path id="Trazado_167515" data-name="Trazado 167515" d="M25.532,41.929l-2.955-2.955a2.188,2.188,0,0,1,3.094-3.094l2.955,2.955a2.188,2.188,0,1,1-3.094,3.094Z" transform="translate(-21.936 -35.239)" fill="#ba5d4f"/>
              <path id="Trazado_167516" data-name="Trazado 167516" d="M28.782,42.086a2.188,2.188,0,0,1-3.094,0l-2.24-2.24a2.188,2.188,0,1,0,3.094-3.094l2.24,2.24A2.186,2.186,0,0,1,28.782,42.086Z" transform="translate(-22.094 -35.397)" fill="#a34f41"/>
            </g>
          </g>
          <g id="Grupo_110858" data-name="Grupo 110858" transform="translate(23.134 2.719)">
            <g id="Grupo_110856" data-name="Grupo 110856">
              <path id="Trazado_167517" data-name="Trazado 167517" d="M0,0H9.279V14.567H0Z" transform="translate(10.301 0) rotate(45)" fill="#ba5d4f"/>
            </g>
            <g id="Grupo_110857" data-name="Grupo 110857" transform="translate(14.372 14.381)">
              <path id="Trazado_167518" data-name="Trazado 167518" d="M0,0H9.279V14.567H0Z" transform="translate(6.561 16.862) rotate(-135)" fill="#a34f41"/>
            </g>
          </g>
          <g id="Grupo_110860" data-name="Grupo 110860" transform="translate(20.413)">
            <path id="Trazado_167519" data-name="Trazado 167519" d="M23.656,16.925l-.228-.228a2.213,2.213,0,0,1,0-3.13L34.7,2.292a2.213,2.213,0,0,1,3.13,0l.228.228a2.213,2.213,0,0,1,0,3.13L26.786,16.925A2.213,2.213,0,0,1,23.656,16.925Z" transform="translate(-22.78 -1.644)" fill="#873f30"/>
            <path id="Trazado_167520" data-name="Trazado 167520" d="M46.583,39.852l.228.228a2.213,2.213,0,0,0,3.13,0L61.216,28.805a2.213,2.213,0,0,0,0-3.13l-.228-.228a2.213,2.213,0,0,0-3.13,0L46.583,36.722A2.213,2.213,0,0,0,46.583,39.852Z" transform="translate(-25.187 -4.051)" fill="#6c3328"/>
            <g id="Grupo_110859" data-name="Grupo 110859" transform="translate(5.698 5.698)">
              <path id="Trazado_167521" data-name="Trazado 167521" d="M0,0H10.42V22H0Z" transform="translate(16.733 1.172) rotate(45)" fill="#fcc16d"/>
              <path id="Trazado_167522" data-name="Trazado 167522" d="M0,0H22V5.274H0Z" transform="translate(4.81 20.376) rotate(-45)" fill="#fca62f"/>
              <path id="Trazado_167523" data-name="Trazado 167523" d="M45.908,8.865,44.1,8.127a1.66,1.66,0,0,0-1.8.363L29.625,21.165a1.66,1.66,0,0,0-.363,1.8L30,24.772a1.107,1.107,0,0,0,1.807.364L46.272,10.672A1.107,1.107,0,0,0,45.908,8.865Z" transform="translate(-29.139 -8.003)" fill="#873f30"/>
              <path id="Trazado_167524" data-name="Trazado 167524" d="M54.466,17.423l.738,1.805a1.66,1.66,0,0,1-.363,1.8L42.166,33.706a1.66,1.66,0,0,1-1.8.363l-1.805-.738a1.107,1.107,0,0,1-.364-1.807L52.659,17.059a1.107,1.107,0,0,1,1.807.364Z" transform="translate(-30.047 -8.911)" fill="#6c3328"/>
            </g>
          </g>
        </g>
      </g>
    </g>
  </g>
</svg>
