<svg xmlns="http://www.w3.org/2000/svg" width="101" height="101" viewBox="0 0 101 101">
  <g id="Grupo_157555" data-name="Grupo 157555" transform="translate(-750 -5286)">
    <circle id="Elipse_5094" data-name="Elipse 5094" cx="50.5" cy="50.5" r="50.5" transform="translate(750 5286)" fill="#ffc8bf"/>
    <g id="palacio-de-justicia" transform="translate(768.447 5303.803)">
      <g id="Grupo_157201" data-name="Grupo 157201" transform="translate(0.553 0)">
        <g id="Grupo_157197" data-name="Grupo 157197" transform="translate(0.228 21.521)">
          <g id="Grupo_157195" data-name="Grupo 157195" transform="translate(5.122)">
            <g id="Grupo_157190" data-name="Grupo 157190">
              <g id="Grupo_157189" data-name="Grupo 157189" transform="translate(1.556 4.925)">
                <path id="Trazado_599746" data-name="Trazado 599746" d="M67.109,238.872H56.178L57.258,213h8.77Z" transform="translate(-56.178 -213.002)" fill="#ffd597"/>
                <path id="Trazado_599747" data-name="Trazado 599747" d="M73.8,238.869,72.724,213H63.953l-.131,3.142H67.9a1.791,1.791,0,0,1,1.789,1.716l.877,21.011Z" transform="translate(-62.873 -213)" fill="#fcc16d"/>
              </g>
              <path id="Trazado_599748" data-name="Trazado 599748" d="M67.446,178.514H59.511a1.238,1.238,0,0,1-1.238-1.238v-2.706a1.238,1.238,0,0,1,1.238-1.238h7.934a1.238,1.238,0,0,1,1.238,1.238v2.706A1.238,1.238,0,0,1,67.446,178.514Z" transform="translate(-56.457 -173.331)" fill="#fb9927"/>
              <path id="Trazado_599749" data-name="Trazado 599749" d="M68.684,176.269v-1.7a1.238,1.238,0,0,0-1.238-1.238H59.511a1.238,1.238,0,0,0-1.238,1.238v1.7Z" transform="translate(-56.457 -173.331)" fill="#f98824"/>
              <path id="Trazado_599750" data-name="Trazado 599750" d="M56.45,414.334H44.883a1.238,1.238,0,0,1-1.238-1.238v-2.706a1.238,1.238,0,0,1,1.238-1.238H56.45a1.238,1.238,0,0,1,1.238,1.238V413.1a1.238,1.238,0,0,1-1.238,1.238Z" transform="translate(-43.645 -379.871)" fill="#fee7c9"/>
              <path id="Trazado_599751" data-name="Trazado 599751" d="M125.343,410.385v2.705a1.238,1.238,0,0,1-1.238,1.238H120.89a1.238,1.238,0,0,0,1.238-1.238v-2.705a1.239,1.239,0,0,0-1.238-1.24H124.1A1.239,1.239,0,0,1,125.343,410.385Z" transform="translate(-111.299 -379.867)" fill="#ffd597"/>
            </g>
            <g id="Grupo_157192" data-name="Grupo 157192" transform="translate(19.344)">
              <g id="Grupo_157191" data-name="Grupo 157191" transform="translate(1.556 4.925)">
                <path id="Trazado_599752" data-name="Trazado 599752" d="M222.909,238.872H211.978l1.08-25.87h8.77Z" transform="translate(-211.978 -213.002)" fill="#ffd597"/>
                <path id="Trazado_599753" data-name="Trazado 599753" d="M229.6,238.869,228.523,213h-8.77l-.131,3.142H223.7a1.791,1.791,0,0,1,1.789,1.716l.878,21.011Z" transform="translate(-218.673 -213)" fill="#fcc16d"/>
              </g>
              <path id="Trazado_599754" data-name="Trazado 599754" d="M223.246,178.514h-7.934a1.238,1.238,0,0,1-1.238-1.238v-2.706a1.238,1.238,0,0,1,1.238-1.238h7.934a1.238,1.238,0,0,1,1.238,1.238v2.706A1.238,1.238,0,0,1,223.246,178.514Z" transform="translate(-212.257 -173.331)" fill="#fb9927"/>
              <path id="Trazado_599755" data-name="Trazado 599755" d="M224.484,176.269v-1.7a1.238,1.238,0,0,0-1.238-1.238h-7.934a1.238,1.238,0,0,0-1.238,1.238v1.7Z" transform="translate(-212.257 -173.331)" fill="#f98824"/>
              <path id="Trazado_599756" data-name="Trazado 599756" d="M212.25,414.334H200.683a1.238,1.238,0,0,1-1.238-1.238v-2.706a1.238,1.238,0,0,1,1.238-1.238H212.25a1.238,1.238,0,0,1,1.238,1.238V413.1A1.238,1.238,0,0,1,212.25,414.334Z" transform="translate(-199.445 -379.871)" fill="#fee7c9"/>
              <path id="Trazado_599757" data-name="Trazado 599757" d="M281.147,410.385v2.705a1.238,1.238,0,0,1-1.238,1.238H276.7a1.238,1.238,0,0,0,1.238-1.238v-2.705a1.24,1.24,0,0,0-1.238-1.24h3.214A1.24,1.24,0,0,1,281.147,410.385Z" transform="translate(-267.104 -379.867)" fill="#ffd597"/>
            </g>
            <g id="Grupo_157194" data-name="Grupo 157194" transform="translate(38.688)">
              <g id="Grupo_157193" data-name="Grupo 157193" transform="translate(1.556 4.925)">
                <path id="Trazado_599758" data-name="Trazado 599758" d="M378.71,238.872H367.779l1.08-25.87h8.77Z" transform="translate(-367.779 -213.002)" fill="#ffd597"/>
                <path id="Trazado_599759" data-name="Trazado 599759" d="M385.406,238.869,384.325,213h-8.77l-.131,3.142H379.5a1.791,1.791,0,0,1,1.789,1.716l.877,21.011Z" transform="translate(-374.474 -213)" fill="#fcc16d"/>
              </g>
              <path id="Trazado_599760" data-name="Trazado 599760" d="M379.046,178.514h-7.935a1.238,1.238,0,0,1-1.238-1.238v-2.706a1.238,1.238,0,0,1,1.238-1.238h7.935a1.238,1.238,0,0,1,1.238,1.238v2.706A1.238,1.238,0,0,1,379.046,178.514Z" transform="translate(-368.057 -173.331)" fill="#fb9927"/>
              <path id="Trazado_599761" data-name="Trazado 599761" d="M380.284,176.269v-1.7a1.238,1.238,0,0,0-1.238-1.238h-7.935a1.238,1.238,0,0,0-1.238,1.238v1.7Z" transform="translate(-368.057 -173.331)" fill="#f98824"/>
              <path id="Trazado_599762" data-name="Trazado 599762" d="M368.05,414.334H356.483a1.238,1.238,0,0,1-1.238-1.238v-2.706a1.238,1.238,0,0,1,1.238-1.238H368.05a1.238,1.238,0,0,1,1.238,1.238V413.1A1.238,1.238,0,0,1,368.05,414.334Z" transform="translate(-355.245 -379.871)" fill="#fee7c9"/>
              <path id="Trazado_599763" data-name="Trazado 599763" d="M436.942,410.385v2.705a1.238,1.238,0,0,1-1.238,1.238H432.49a1.238,1.238,0,0,0,1.238-1.238v-2.705a1.239,1.239,0,0,0-1.238-1.24H435.7A1.239,1.239,0,0,1,436.942,410.385Z" transform="translate(-422.899 -379.867)" fill="#ffd597"/>
            </g>
          </g>
          <path id="Trazado_599764" data-name="Trazado 599764" d="M79.953,442.723H21.8V439.9a1.238,1.238,0,0,1,1.238-1.238H78.715a1.238,1.238,0,0,1,1.238,1.238v2.825Z" transform="translate(-19.387 -405.717)" fill="#fb9927"/>
          <path id="Trazado_599765" data-name="Trazado 599765" d="M457.484,439.9v2.826h-3.4V439.9a1.238,1.238,0,0,0-1.238-1.238h3.4a1.237,1.237,0,0,1,1.238,1.238Z" transform="translate(-396.917 -405.718)" fill="#f98824"/>
          <g id="Grupo_157196" data-name="Grupo 157196" transform="translate(0 36.343)">
            <path id="Trazado_599766" data-name="Trazado 599766" d="M64.13,471.746H3.631a1.238,1.238,0,0,1-1.238-1.238v-3.23a1.238,1.238,0,0,1,1.238-1.238h60.5a1.238,1.238,0,0,1,1.238,1.238v3.23A1.238,1.238,0,0,1,64.13,471.746Z" transform="translate(-2.393 -466.039)" fill="#ffd597"/>
            <path id="Trazado_599767" data-name="Trazado 599767" d="M476.892,467.282v3.23a1.239,1.239,0,0,1-1.239,1.238h-3.4a1.238,1.238,0,0,0,1.238-1.238v-3.23a1.238,1.238,0,0,0-1.238-1.238h3.4A1.238,1.238,0,0,1,476.892,467.282Z" transform="translate(-413.916 -466.043)" fill="#fcc16d"/>
          </g>
        </g>
        <g id="Grupo_157198" data-name="Grupo 157198" transform="translate(3.029 2.534)">
          <path id="Trazado_599768" data-name="Trazado 599768" d="M53.638,20.411,24.951,40.143H82.325Z" transform="translate(-24.951 -20.411)" fill="#ffd597"/>
          <path id="Trazado_599769" data-name="Trazado 599769" d="M82.324,40.14H72.455L53.637,27.2,34.819,40.14H24.95L53.637,20.408Z" transform="translate(-24.95 -20.408)" fill="#fcc16d"/>
        </g>
        <g id="Grupo_157199" data-name="Grupo 157199">
          <path id="Trazado_599770" data-name="Trazado 599770" d="M60.564,25.072,32.269,5.61,3.974,25.072a1.267,1.267,0,0,1-1.762-.326L.776,22.658A1.267,1.267,0,0,1,1.1,20.9L30.833.447a2.534,2.534,0,0,1,2.872,0L63.437,20.9a1.267,1.267,0,0,1,.326,1.762l-1.436,2.088A1.267,1.267,0,0,1,60.564,25.072Z" transform="translate(-0.553 0)" fill="#fee7c9"/>
        </g>
        <g id="Grupo_157200" data-name="Grupo 157200" transform="translate(57.243 19.044)">
          <path id="Trazado_599771" data-name="Trazado 599771" d="M467.559,157l-1.436,2.089a1.267,1.267,0,0,1-1.763.326l-2.768-1.9a1.284,1.284,0,0,0,1.571-.45l1.457-2.117a1.287,1.287,0,0,0-.078-1.558l2.691,1.852A1.266,1.266,0,0,1,467.559,157Z" transform="translate(-461.592 -153.384)" fill="#ffd597"/>
        </g>
      </g>
      <path id="Trazado_599772" data-name="Trazado 599772" d="M221.107,87.032h-.013V84.616a.959.959,0,0,0-.556-1.74H217.42a.959.959,0,0,0-1.917,0h-3.118a.959.959,0,0,0-.556,1.74v2.415h-.013a.959.959,0,0,0,0,1.919h1.945a.959.959,0,0,0,0-1.919h-.013V84.795H215.5V89.51H214.43a.959.959,0,0,0,0,1.919h4.062a.959.959,0,0,0,0-1.919H217.42V84.795h1.755v2.237h-.013a.959.959,0,0,0,0,1.919h1.945a.959.959,0,0,0,0-1.919Z" transform="translate(-184.192 -71.759)" fill="#fb9927"/>
    </g>
  </g>
</svg>
