<svg xmlns="http://www.w3.org/2000/svg" width="101" height="101" viewBox="0 0 101 101">
  <g id="Grupo_157554" data-name="Grupo 157554" transform="translate(-750 -5447)">
    <circle id="Elipse_5095" data-name="Elipse 5095" cx="50.5" cy="50.5" r="50.5" transform="translate(750 5447)" fill="#ffc8bf"/>
    <g id="obediente" transform="translate(769 5468.854)">
      <g id="Grupo_157277" data-name="Grupo 157277" transform="translate(3.197 0)">
        <g id="Grupo_157273" data-name="Grupo 157273" transform="translate(0 0)">
          <g id="Grupo_157268" data-name="Grupo 157268" transform="translate(0 4.29)">
            <g id="Grupo_157260" data-name="Grupo 157260" transform="translate(0.915)">
              <g id="Grupo_157258" data-name="Grupo 157258" transform="translate(0 1.181)">
                <path id="Trazado_599849" data-name="Trazado 599849" d="M45.027,45.553a.91.91,0,0,0-1.611,0L33.883,63.668H35.94l8.282-15.736L52.5,63.668h2.057Z" transform="translate(-33.883 -45.067)" fill="#636363"/>
              </g>
              <g id="Grupo_157259" data-name="Grupo 157259" transform="translate(9.429)">
                <path id="Trazado_599850" data-name="Trazado 599850" d="M111.561,35.34h1.821V55.121h-1.821Z" transform="translate(-111.561 -35.34)" fill="#727997"/>
              </g>
            </g>
            <g id="Grupo_157267" data-name="Grupo 157267">
              <g id="Grupo_157261" data-name="Grupo 157261" transform="translate(34.454 1.181)">
                <path id="Trazado_599851" data-name="Trazado 599851" d="M321.344,45.553a.91.91,0,0,0-1.611,0L310.2,63.668h2.057l8.282-15.736,8.282,15.736h2.057Z" transform="translate(-310.199 -45.067)" fill="#636363"/>
              </g>
              <g id="Grupo_157262" data-name="Grupo 157262" transform="translate(43.883)">
                <path id="Trazado_599852" data-name="Trazado 599852" d="M387.878,35.34H389.7V55.121h-1.821Z" transform="translate(-387.878 -35.34)" fill="#727997"/>
              </g>
              <g id="Grupo_157263" data-name="Grupo 157263" transform="translate(0 19.66)">
                <path id="Trazado_599853" data-name="Trazado 599853" d="M26.4,197.922l2.45,4.244a.408.408,0,0,0,.353.2h16.79a.408.408,0,0,0,.353-.2l2.45-4.244a.408.408,0,0,0-.353-.612H26.753a.408.408,0,0,0-.353.612Z" transform="translate(-26.345 -197.31)" fill="#ca6e59"/>
              </g>
              <g id="Grupo_157264" data-name="Grupo 157264" transform="translate(0 19.66)">
                <path id="Trazado_599854" data-name="Trazado 599854" d="M34.616,202.166l-2.45-4.244a.408.408,0,0,1,.353-.612H26.753a.408.408,0,0,0-.353.612l2.45,4.244a.408.408,0,0,0,.353.2h5.765A.408.408,0,0,1,34.616,202.166Z" transform="translate(-26.345 -197.31)" fill="#bb5d4c"/>
              </g>
              <g id="Grupo_157265" data-name="Grupo 157265" transform="translate(33.539 19.66)">
                <path id="Trazado_599855" data-name="Trazado 599855" d="M302.717,197.922l2.45,4.244a.408.408,0,0,0,.353.2h16.79a.408.408,0,0,0,.353-.2l2.45-4.244a.408.408,0,0,0-.353-.612H303.07A.408.408,0,0,0,302.717,197.922Z" transform="translate(-302.662 -197.31)" fill="#ca6e59"/>
              </g>
              <g id="Grupo_157266" data-name="Grupo 157266" transform="translate(33.539 19.66)">
                <path id="Trazado_599856" data-name="Trazado 599856" d="M311.645,202.166l-2.45-4.244a.408.408,0,0,1,.353-.612H303.07a.408.408,0,0,0-.353.612l2.45,4.244a.408.408,0,0,0,.353.2H312A.408.408,0,0,1,311.645,202.166Z" transform="translate(-302.662 -197.31)" fill="#bb5d4c"/>
              </g>
            </g>
          </g>
          <g id="Grupo_157269" data-name="Grupo 157269" transform="translate(27.113 6.754)">
            <path id="Trazado_599857" data-name="Trazado 599857" d="M249.72,55.646V60.97h1.821V55.646a3.361,3.361,0,0,1-1.821,0Z" transform="translate(-249.72 -55.646)" fill="#883f2e"/>
          </g>
          <path id="Trazado_599858" data-name="Trazado 599858" d="M241.592,122.184V99.134a.625.625,0,0,0-.625-.625h-3.76a.625.625,0,0,0-.625.625v23.05Z" transform="translate(-211.063 -86.552)" fill="#bb5d4c"/>
          <path id="Trazado_599859" data-name="Trazado 599859" d="M238.7,122.183V99.133a.625.625,0,0,1,.625-.625h-2.122a.625.625,0,0,0-.625.625v23.05H238.7Z" transform="translate(-211.063 -86.551)" fill="#a44f3e"/>
          <g id="Grupo_157270" data-name="Grupo 157270" transform="translate(5.895 2.59)">
            <path id="Trazado_599860" data-name="Trazado 599860" d="M301.989,21.34H284.025a3.362,3.362,0,0,1,0,1.821h17.964a.91.91,0,1,0,0-1.821Z" transform="translate(-258.643 -21.34)" fill="#bb5d4c"/>
            <path id="Trazado_599861" data-name="Trazado 599861" d="M93.663,22.25a3.369,3.369,0,0,1,.126-.91H75.824a.91.91,0,0,0,0,1.821H93.789A3.365,3.365,0,0,1,93.663,22.25Z" transform="translate(-74.914 -21.34)" fill="#bb5d4c"/>
          </g>
          <g id="Grupo_157271" data-name="Grupo 157271" transform="translate(24.523)">
            <circle id="Elipse_5529" data-name="Elipse 5529" cx="3.501" cy="3.501" r="3.501" fill="#883f2e"/>
          </g>
          <g id="Grupo_157272" data-name="Grupo 157272" transform="translate(24.523 0)">
            <path id="Trazado_599862" data-name="Trazado 599862" d="M231.507,3.5A3.5,3.5,0,0,1,233.444.369a3.5,3.5,0,1,0,0,6.264A3.5,3.5,0,0,1,231.507,3.5Z" transform="translate(-228.38 0)" fill="#6d3326"/>
          </g>
        </g>
        <g id="Grupo_157276" data-name="Grupo 157276" transform="translate(17.416 35.51)">
          <path id="Trazado_599863" data-name="Trazado 599863" d="M220.754,298.05v-2.994a2.5,2.5,0,0,0-2.5-2.5h-6.688a2.5,2.5,0,0,0-2.5,2.5v2.994Z" transform="translate(-204.302 -292.555)" fill="#883f2e"/>
          <path id="Trazado_599864" data-name="Trazado 599864" d="M213.284,298.05v-2.994a2.5,2.5,0,0,1,2.5-2.5h-4.22a2.5,2.5,0,0,0-2.5,2.5v2.994Z" transform="translate(-204.302 -292.555)" fill="#6d3326"/>
          <g id="Grupo_157274" data-name="Grupo 157274" transform="translate(0 5.373)">
            <path id="Trazado_599865" data-name="Trazado 599865" d="M191.046,341.606v-2.638a2.143,2.143,0,0,0-2.143-2.143H171.975a2.143,2.143,0,0,0-2.143,2.143v2.638Z" transform="translate(-169.832 -336.825)" fill="#bb5d4c"/>
          </g>
          <g id="Grupo_157275" data-name="Grupo 157275" transform="translate(0 5.373)">
            <path id="Trazado_599866" data-name="Trazado 599866" d="M175.105,341.606v-2.638a2.143,2.143,0,0,1,2.143-2.143h-5.273a2.143,2.143,0,0,0-2.143,2.143v2.638Z" transform="translate(-169.832 -336.825)" fill="#a44f3e"/>
          </g>
        </g>
      </g>
      <g id="Grupo_157282" data-name="Grupo 157282" transform="translate(0.91 46.454)">
        <g id="Grupo_157280" data-name="Grupo 157280">
          <path id="Trazado_599867" data-name="Trazado 599867" d="M15.638,392.405v-6.346a3.222,3.222,0,0,1,3.219-3.219v-.121H14.013a6.513,6.513,0,0,0,0,13.026h4.843v-.121A3.222,3.222,0,0,1,15.638,392.405Z" transform="translate(-7.5 -382.719)" fill="#ffa455"/>
          <g id="Grupo_157278" data-name="Grupo 157278" transform="translate(8.016)">
            <path id="Trazado_599868" data-name="Trazado 599868" d="M73.542,386.058V392.4a3.34,3.34,0,0,0,3.34,3.34h46.427V382.718H76.882A3.34,3.34,0,0,0,73.542,386.058Z" transform="translate(-73.542 -382.718)" fill="#fff3de"/>
          </g>
          <g id="Grupo_157279" data-name="Grupo 157279" transform="translate(8.016 0.004)">
            <path id="Trazado_599869" data-name="Trazado 599869" d="M80.044,392.648a3.34,3.34,0,0,1-3.34-3.34v-6.346c0-.07,0-.14.007-.209a3.34,3.34,0,0,0-3.17,3.336v6.346a3.34,3.34,0,0,0,3.34,3.34h46.427v-3.127Z" transform="translate(-73.541 -382.753)" fill="#ffe5c2"/>
          </g>
        </g>
        <g id="Grupo_157281" data-name="Grupo 157281" transform="translate(35.663 3.265)">
          <path id="Trazado_599870" data-name="Trazado 599870" d="M323.435,409.615H302.225a.91.91,0,0,0,0,1.821h21.209Z" transform="translate(-301.315 -409.615)" fill="#f6a96c"/>
          <path id="Trazado_599871" data-name="Trazado 599871" d="M323.435,448.139H302.225a.91.91,0,0,0,0,1.821h21.209Z" transform="translate(-301.315 -443.463)" fill="#f6a96c"/>
        </g>
      </g>
      <g id="Grupo_157283" data-name="Grupo 157283" transform="translate(0 45.544)">
        <path id="Trazado_599872" data-name="Trazado 599872" d="M7.517,377.039H61.236a.91.91,0,1,0,0-1.821H7.536a7.424,7.424,0,1,0-.113,14.847h6.318v-1.821H7.423a5.6,5.6,0,1,1,.094-11.205Z" transform="translate(0 -375.218)" fill="#3c821b"/>
        <path id="Trazado_599873" data-name="Trazado 599873" d="M167.477,482.536v1.821h40.908a.91.91,0,1,0,0-1.821Z" transform="translate(-147.149 -469.51)" fill="#3c821b"/>
      </g>
      <path id="Trazado_599874" data-name="Trazado 599874" d="M112.211,423.615v10.352a.375.375,0,0,0,.589.308l2.826-1.956,2.826,1.956a.375.375,0,0,0,.589-.308V423.615Z" transform="translate(-98.591 -372.197)" fill="#fb2b3a"/>
      <path id="Trazado_599875" data-name="Trazado 599875" d="M112.211,423.614v10.352a.375.375,0,0,0,.589.308l2.555-1.769v-8.892h-3.144Z" transform="translate(-98.591 -372.196)" fill="#e41f2d"/>
      <g id="Grupo_157284" data-name="Grupo 157284" transform="translate(11.356 49.719)">
        <path id="Trazado_599876" data-name="Trazado 599876" d="M111.5,411.436H94.469a.91.91,0,1,1,0-1.821H111.5a.91.91,0,1,1,0,1.821Z" transform="translate(-93.559 -409.615)" fill="#f6a96c"/>
      </g>
    </g>
  </g>
</svg>
