<svg xmlns="http://www.w3.org/2000/svg" width="101" height="101" viewBox="0 0 101 101">
  <g id="Grupo_157553" data-name="Grupo 157553" transform="translate(-750 -5609)">
    <circle id="Elipse_5097" data-name="Elipse 5097" cx="50.5" cy="50.5" r="50.5" transform="translate(750 5609)" fill="#ffc8bf"/>
    <g id="escala-de-justicia" transform="translate(765.945 5580.439)">
      <g id="Grupo_157225" data-name="Grupo 157225" transform="translate(0.353 56.484)">
        <g id="Grupo_157222" data-name="Grupo 157222" transform="translate(0 0)">
          <path id="Trazado_599800" data-name="Trazado 599800" d="M10.5,95.539H4.376a1.763,1.763,0,1,1,0-3.527H10.5a9.5,9.5,0,0,0,4.927-1.379,13.019,13.019,0,0,1,6.757-1.891h5.85a1.763,1.763,0,0,1,0,3.527h-5.85a9.494,9.494,0,0,0-4.927,1.379A13.021,13.021,0,0,1,10.5,95.539Z" transform="translate(-2.613 -88.743)" fill="#cdbfbb"/>
        </g>
        <g id="Grupo_157223" data-name="Grupo 157223" transform="translate(41.215)">
          <path id="Trazado_599801" data-name="Trazado 599801" d="M333.379,95.538h-6.128a13.02,13.02,0,0,1-6.757-1.891,9.493,9.493,0,0,0-4.927-1.379h-5.85a1.763,1.763,0,1,1,0-3.527h5.85a13.019,13.019,0,0,1,6.758,1.891,9.494,9.494,0,0,0,4.927,1.379h6.128a1.763,1.763,0,1,1,0,3.527Z" transform="translate(-307.953 -88.742)" fill="#cdbfbb"/>
        </g>
        <g id="Grupo_157224" data-name="Grupo 157224" transform="translate(63.461 3.269)">
          <path id="Trazado_599802" data-name="Trazado 599802" d="M477.705,114.726a1.764,1.764,0,0,1-1.763,1.763h-3.181a1.763,1.763,0,1,0,0-3.527h3.181A1.764,1.764,0,0,1,477.705,114.726Z" transform="translate(-472.761 -112.963)" fill="#b9acac"/>
        </g>
      </g>
      <g id="Grupo_157236" data-name="Grupo 157236" transform="translate(22.34 51.45)">
        <g id="Grupo_157235" data-name="Grupo 157235">
          <g id="Grupo_157234" data-name="Grupo 157234">
            <g id="Grupo_157233" data-name="Grupo 157233">
              <g id="Grupo_157228" data-name="Grupo 157228" transform="translate(2.028 2.783)">
                <g id="Grupo_157227" data-name="Grupo 157227">
                  <g id="Grupo_157226" data-name="Grupo 157226">
                    <path id="Trazado_599803" data-name="Trazado 599803" d="M180.531,72.068v9.256l2.83,3.335v38.456a1.391,1.391,0,0,0,1.391,1.391h11.182a1.391,1.391,0,0,0,1.391-1.391v-31.4a.7.7,0,0,1,.141-.419l1.586-2.1a9.176,9.176,0,0,0,1.854-5.531V72.068Z" transform="translate(-180.531 -72.068)" fill="#ffc197"/>
                  </g>
                </g>
              </g>
              <path id="Trazado_599805" data-name="Trazado 599805" d="M209.824,124.505h2.77a1.391,1.391,0,0,0,1.391-1.391v-31.4a.7.7,0,0,1,.141-.419l1.586-2.1a9.176,9.176,0,0,0,1.855-5.531v-11.6H199.79v7.515a5.144,5.144,0,0,0,5.071,5.148,5.044,5.044,0,0,0,4-1.994,5.051,5.051,0,0,0,2.906-.229c1.023-.4,2.345.006,2.345,1.2v.486c0,2-1.356,3.561-2.56,5.154l-1.586,2.1a.7.7,0,0,0-.141.419Z" transform="translate(-195.163 -69.285)" fill="#fcab6d"/>
              <g id="Grupo_157231" data-name="Grupo 157231" transform="translate(2.043)">
                <g id="Grupo_157229" data-name="Grupo 157229" transform="translate(0 0.001)">
                  <path id="Trazado_599806" data-name="Trazado 599806" d="M296.307,61.261a2.545,2.545,0,0,0,2.545-2.545V53.333a1.879,1.879,0,0,0-1.879-1.879h-1.331a1.879,1.879,0,0,0-1.879,1.879v5.383A2.545,2.545,0,0,0,296.307,61.261Z" transform="translate(-278.493 -51.454)" fill="#f8ac7a"/>
                  <path id="Trazado_599807" data-name="Trazado 599807" d="M258.6,62.515a2.545,2.545,0,0,0,2.545-2.545V53.334a1.879,1.879,0,0,0-1.879-1.879h-1.331a1.879,1.879,0,0,0-1.879,1.879v6.636A2.545,2.545,0,0,0,258.6,62.515Z" transform="translate(-245.876 -51.455)" fill="#a34f41"/>
                  <path id="Trazado_599808" data-name="Trazado 599808" d="M261.142,53.339v6.636a2.545,2.545,0,0,1-4.719,1.322,2.517,2.517,0,0,1-.371-1.322V53.339a1.879,1.879,0,0,1,1.88-1.879h1.331A1.878,1.878,0,0,1,261.142,53.339Z" transform="translate(-245.872 -51.459)" fill="#f8ac7a"/>
                  <path id="Trazado_599809" data-name="Trazado 599809" d="M220.893,64.395a2.545,2.545,0,0,0,2.545-2.545V53.334a1.879,1.879,0,0,0-1.879-1.879h-1.331a1.879,1.879,0,0,0-1.879,1.879V61.85A2.545,2.545,0,0,0,220.893,64.395Z" transform="translate(-213.258 -51.455)" fill="#f8ac7a"/>
                  <path id="Trazado_599810" data-name="Trazado 599810" d="M183.186,62.516a2.545,2.545,0,0,0,2.545-2.545V53.335a1.879,1.879,0,0,0-1.879-1.879H182.52a1.879,1.879,0,0,0-1.879,1.879v6.636A2.545,2.545,0,0,0,183.186,62.516Z" transform="translate(-180.641 -51.456)" fill="#f8ac7a"/>
                </g>
                <g id="Grupo_157230" data-name="Grupo 157230" transform="translate(3.005)">
                  <path id="Trazado_599811" data-name="Trazado 599811" d="M316.233,51.45h-.2v9.766a2.545,2.545,0,0,0,2.084-2.5V53.33a1.88,1.88,0,0,0-1.88-1.88Z" transform="translate(-300.759 -51.45)" fill="#e79759"/>
                  <path id="Trazado_599812" data-name="Trazado 599812" d="M278.528,51.46h-.2V62.477a2.546,2.546,0,0,0,2.084-2.5V53.339A1.878,1.878,0,0,0,278.528,51.46Z" transform="translate(-268.144 -51.459)" fill="#e79759"/>
                  <path id="Trazado_599813" data-name="Trazado 599813" d="M203.11,51.46H202.9V62.477a2.545,2.545,0,0,0,2.084-2.5V53.339A1.879,1.879,0,0,0,203.11,51.46Z" transform="translate(-202.904 -51.459)" fill="#e79759"/>
                  <path id="Trazado_599814" data-name="Trazado 599814" d="M242.693,53.339a1.879,1.879,0,0,0-1.879-1.879h-.206v12.9a2.546,2.546,0,0,0,2.086-2.5Z" transform="translate(-235.519 -51.459)" fill="#e79759"/>
                </g>
              </g>
              <g id="Grupo_157232" data-name="Grupo 157232" transform="translate(0 1.804)">
                <path id="Trazado_599815" data-name="Trazado 599815" d="M229.259,105.861l-1.519,1.519-2.534,2.535.652.652a5.453,5.453,0,0,1,.641.768,2.544,2.544,0,0,0,2.054-.656,7.4,7.4,0,0,0-.459-.7l1.121-1.121c.053-.053.106-.107.156-.163v-2.949C229.336,105.783,229.3,105.822,229.259,105.861Z" transform="translate(-217.149 -100.218)" fill="#ffc197"/>
                <path id="Trazado_599816" data-name="Trazado 599816" d="M201.5,230.3l.268.268.012.012a.868.868,0,0,0,1.463-.636,2.054,2.054,0,0,0-.6-1.452l-1.142-1.142Z" transform="translate(-196.644 -205.413)" fill="#ffc197"/>
                <path id="Trazado_599817" data-name="Trazado 599817" d="M175.931,65.123l-7.319,6.724a6.647,6.647,0,0,0-1.784,2.72l-1.107,3.2a3.852,3.852,0,0,0,.156,2.9l.806,1.709a8.3,8.3,0,0,0,1.639,2.33l3.79,3.789.652-1.683a41.525,41.525,0,0,1,2.4-5.012,5.585,5.585,0,0,0-.944-6.64L174.058,75a.7.7,0,0,1,0-.983l3.561-3.561a3.735,3.735,0,0,0,0-5.282A1.232,1.232,0,0,0,175.931,65.123Z" transform="translate(-165.508 -64.814)" fill="#ffc197"/>
              </g>
              <path id="Trazado_599804" data-name="Trazado 599804" d="M228.1,82.678l1.121-1.121a5.823,5.823,0,0,0,.711-7.371,3.738,3.738,0,0,1-.667,4.377l-4.052,4.053.652.652a5.582,5.582,0,0,1,1.312,5.823,1.043,1.043,0,1,0,1.957.719,7.734,7.734,0,0,0,.383-3.62A7.586,7.586,0,0,0,228.1,82.678Z" transform="translate(-217.149 -71.117)" fill="#e79759"/>
            </g>
          </g>
        </g>
      </g>
      <g id="Grupo_157237" data-name="Grupo 157237" transform="translate(1.077 63.089)">
        <path id="Trazado_599818" data-name="Trazado 599818" d="M23.216,167.121a1.043,1.043,0,0,1-1.009-.781l-6.086-23.469L10.035,166.34a1.043,1.043,0,1,1-2.019-.524l7.1-27.361a1.043,1.043,0,0,1,2.019,0l7.1,27.361a1.044,1.044,0,0,1-1.01,1.305Z" transform="translate(-7.982 -137.674)" fill="#f98824"/>
      </g>
      <g id="Grupo_157239" data-name="Grupo 157239" transform="translate(0 91.493)">
        <g id="Grupo_157238" data-name="Grupo 157238">
          <path id="Trazado_599819" data-name="Trazado 599819" d="M12.569,356.308H5.863A5.863,5.863,0,0,1,0,350.444v-.675a1.663,1.663,0,0,1,1.663-1.663H16.769a1.663,1.663,0,0,1,1.663,1.663v.675a5.863,5.863,0,0,1-5.863,5.863Z" transform="translate(0 -348.106)" fill="#fcb44d"/>
          <g id="XMLID_235_" transform="translate(3.361 1.931)">
            <path id="Trazado_599820" data-name="Trazado 599820" d="M25.955,364.495h-.015a1.043,1.043,0,0,1,0-2.086h.015a1.043,1.043,0,0,1,0,2.086Z" transform="translate(-24.898 -362.409)" fill="#5b5555"/>
          </g>
          <path id="Trazado_599821" data-name="Trazado 599821" d="M68.949,349.775v.674a5.864,5.864,0,0,1-5.863,5.865H58.4a5.864,5.864,0,0,0,5.863-5.865v-.674a1.663,1.663,0,0,0-1.663-1.663h4.687A1.663,1.663,0,0,1,68.949,349.775Z" transform="translate(-50.516 -348.111)" fill="#fb9927"/>
        </g>
      </g>
      <g id="Grupo_157240" data-name="Grupo 157240" transform="translate(6.601 58.901)">
        <circle id="Elipse_5527" data-name="Elipse 5527" cx="2.615" cy="2.615" r="2.615" transform="translate(0 0)" fill="#fcb44d"/>
        <path id="Trazado_599822" data-name="Trazado 599822" d="M61.09,109.266a2.615,2.615,0,0,1-4.145,2.122,2.616,2.616,0,0,0,.444-4.5,2.584,2.584,0,0,1,1.085-.237A2.616,2.616,0,0,1,61.09,109.266Z" transform="translate(-55.86 -106.65)" fill="#fb9927"/>
      </g>
      <g id="Grupo_157241" data-name="Grupo 157241" transform="translate(51.755 63.088)">
        <path id="Trazado_599823" data-name="Trazado 599823" d="M398.659,167.121a1.043,1.043,0,0,1-1.009-.781l-6.086-23.469-6.086,23.469a1.043,1.043,0,1,1-2.019-.524l7.1-27.361a1.043,1.043,0,0,1,2.019,0l7.1,27.361a1.044,1.044,0,0,1-1.01,1.305Z" transform="translate(-383.425 -137.673)" fill="#f98824"/>
      </g>
      <g id="Grupo_157244" data-name="Grupo 157244" transform="translate(50.678 91.493)">
        <g id="Grupo_157243" data-name="Grupo 157243">
          <path id="Trazado_599824" data-name="Trazado 599824" d="M388.012,356.308h-6.706a5.863,5.863,0,0,1-5.863-5.863v-.675a1.663,1.663,0,0,1,1.663-1.663h15.106a1.663,1.663,0,0,1,1.663,1.663v.675A5.863,5.863,0,0,1,388.012,356.308Z" transform="translate(-375.443 -348.106)" fill="#fcb44d"/>
          <g id="Grupo_157242" data-name="Grupo 157242" transform="translate(3.097 1.931)">
            <g id="XMLID_236_">
              <path id="Trazado_599825" data-name="Trazado 599825" d="M399.443,364.495h-.015a1.043,1.043,0,0,1,0-2.086h.015a1.043,1.043,0,0,1,0,2.086Z" transform="translate(-398.386 -362.409)" fill="#5b5555"/>
            </g>
          </g>
          <path id="Trazado_599826" data-name="Trazado 599826" d="M444.392,349.775v.674a5.864,5.864,0,0,1-5.863,5.865h-4.687a5.864,5.864,0,0,0,5.863-5.865v-.674a1.663,1.663,0,0,0-1.663-1.663h4.687A1.663,1.663,0,0,1,444.392,349.775Z" transform="translate(-425.959 -348.111)" fill="#fb9927"/>
        </g>
      </g>
      <g id="Grupo_157245" data-name="Grupo 157245" transform="translate(57.279 58.901)">
        <circle id="Elipse_5528" data-name="Elipse 5528" cx="2.615" cy="2.615" r="2.615" transform="translate(0 0)" fill="#fcb44d"/>
        <path id="Trazado_599827" data-name="Trazado 599827" d="M436.534,109.266a2.615,2.615,0,0,1-4.145,2.122,2.616,2.616,0,0,0,.444-4.5,2.584,2.584,0,0,1,1.085-.237A2.616,2.616,0,0,1,436.534,109.266Z" transform="translate(-431.304 -106.65)" fill="#fb9927"/>
      </g>
    </g>
  </g>
</svg>
