<svg xmlns="http://www.w3.org/2000/svg" width="101" height="101" viewBox="0 0 101 101">
  <g id="Grupo_157552" data-name="Grupo 157552" transform="translate(-750 -5770)">
    <circle id="Elipse_5096" data-name="Elipse 5096" cx="50.5" cy="50.5" r="50.5" transform="translate(750 5770)" fill="#ffc8bf"/>
    <g id="ley_2_" data-name="ley(2)" transform="translate(766.568 5757.492)">
      <g id="Grupo_157254" data-name="Grupo 157254" transform="translate(0 33.518)">
        <g id="Grupo_157248" data-name="Grupo 157248" transform="translate(0 23.797)">
          <g id="Grupo_157246" data-name="Grupo 157246" transform="translate(0 7.921)">
            <path id="Trazado_599828" data-name="Trazado 599828" d="M27.26,276.159l-3.343-3.343L1.159,293.825a3.6,3.6,0,1,0,5.092,5.092Z" transform="translate(0 -272.816)" fill="#873f30"/>
            <path id="Trazado_599829" data-name="Trazado 599829" d="M7.309,305.751a3.605,3.605,0,0,1-5.1,0,3.569,3.569,0,0,1-.879-1.436,3.6,3.6,0,0,0,3.657-.876c.035-.035.069-.071.1-.107L26.1,280.573l2.315,2.315L7.41,305.646c-.034.035-.067.071-.1.1Z" transform="translate(-1.158 -279.545)" fill="#6c3328"/>
          </g>
          <path id="Trazado_599830" data-name="Trazado 599830" d="M180.122,213.053l-7.7,9.183,3.145,3.145,9.183-7.7Z" transform="translate(-149.57 -213.053)" fill="#873f30"/>
          <path id="Trazado_599831" data-name="Trazado 599831" d="M188.23,213.053l-2.488,2.967.746.746a1.407,1.407,0,0,1,0,1.989l-4.718,4.718,1.906,1.906,9.183-7.7Z" transform="translate(-157.677 -213.053)" fill="#6c3328"/>
          <g id="Grupo_157247" data-name="Grupo 157247" transform="translate(20.415 7.195)">
            <path id="Trazado_599832" data-name="Trazado 599832" d="M157.733,274.245l-3.053-3.053a2.26,2.26,0,1,1,3.2-3.2l3.053,3.053a2.26,2.26,0,0,1-3.2,3.2Z" transform="translate(-154.018 -267.335)" fill="#ba5d4f"/>
            <path id="Trazado_599833" data-name="Trazado 599833" d="M170.089,283.411a2.26,2.26,0,0,1-3.2,0l-2.314-2.314a2.26,2.26,0,1,0,3.2-3.2l2.314,2.314A2.259,2.259,0,0,1,170.089,283.411Z" transform="translate(-163.179 -276.5)" fill="#a34f41"/>
          </g>
        </g>
        <g id="Grupo_157251" data-name="Grupo 157251" transform="translate(23.9 2.809)">
          <g id="Grupo_157249" data-name="Grupo 157249" transform="translate(0 0)">
            <path id="Trazado_599834" data-name="Trazado 599834" d="M0,0H9.587V15.052H0Z" transform="translate(10.642) rotate(45)" fill="#ba5d4f"/>
          </g>
          <g id="Grupo_157250" data-name="Grupo 157250" transform="translate(14.847 14.857)">
            <path id="Trazado_599835" data-name="Trazado 599835" d="M0,0H9.587V15.052H0Z" transform="translate(6.778 17.42) rotate(-135)" fill="#a34f41"/>
          </g>
        </g>
        <g id="Grupo_157253" data-name="Grupo 157253" transform="translate(21.088 0)">
          <path id="Trazado_599836" data-name="Trazado 599836" d="M160,49.3l-.235-.235a2.286,2.286,0,0,1,0-3.233l11.648-11.648a2.286,2.286,0,0,1,3.233,0l.235.235a2.286,2.286,0,0,1,0,3.233L163.235,49.3A2.286,2.286,0,0,1,160,49.3Z" transform="translate(-159.097 -33.518)" fill="#873f30"/>
          <path id="Trazado_599837" data-name="Trazado 599837" d="M321.483,210.785l.235.235a2.286,2.286,0,0,0,3.233,0L336.6,199.372a2.286,2.286,0,0,0,0-3.233l-.235-.235a2.286,2.286,0,0,0-3.233,0l-11.648,11.648A2.286,2.286,0,0,0,321.483,210.785Z" transform="translate(-299.378 -173.799)" fill="#6c3328"/>
          <g id="Grupo_157252" data-name="Grupo 157252" transform="translate(5.887 5.887)">
            <path id="Trazado_599838" data-name="Trazado 599838" d="M0,0H10.766V22.733H0Z" transform="translate(17.287 1.21) rotate(45)" fill="#fcc16d"/>
            <path id="Trazado_599839" data-name="Trazado 599839" d="M0,0H22.733V5.449H0Z" transform="translate(4.969 21.05) rotate(-45)" fill="#fca62f"/>
            <path id="Trazado_599840" data-name="Trazado 599840" d="M220.833,78.821l-1.865-.762a1.714,1.714,0,0,0-1.861.375l-13.1,13.1a1.715,1.715,0,0,0-.375,1.861l.762,1.865a1.143,1.143,0,0,0,1.866.376l14.943-14.943A1.143,1.143,0,0,0,220.833,78.821Z" transform="translate(-203.509 -77.931)" fill="#873f30"/>
            <path id="Trazado_599841" data-name="Trazado 599841" d="M281.634,139.623l.762,1.865a1.715,1.715,0,0,1-.375,1.861l-13.1,13.1a1.715,1.715,0,0,1-1.861.375l-1.865-.762a1.143,1.143,0,0,1-.376-1.866l14.943-14.943A1.143,1.143,0,0,1,281.634,139.623Z" transform="translate(-256.407 -130.829)" fill="#6c3328"/>
          </g>
        </g>
      </g>
      <g id="Grupo_157257" data-name="Grupo 157257" transform="translate(23.762 71.299)">
        <g id="Grupo_157255" data-name="Grupo 157255" transform="translate(7.578 8.196)">
          <path id="Trazado_599842" data-name="Trazado 599842" d="M264.206,385.744H236.44v-3.9a1.457,1.457,0,0,1,1.457-1.457H262.75a1.457,1.457,0,0,1,1.457,1.457Z" transform="translate(-236.44 -380.391)" fill="#ba5d4f"/>
          <path id="Trazado_599843" data-name="Trazado 599843" d="M416.445,381.85v3.9H413.4v-3.9a1.457,1.457,0,0,0-1.457-1.457h3.047A1.457,1.457,0,0,1,416.445,381.85Z" transform="translate(-388.679 -380.393)" fill="#a34f41"/>
        </g>
        <path id="Trazado_599844" data-name="Trazado 599844" d="M220.734,416.038H180.729a1.457,1.457,0,0,1-1.324-2.063l1.414-3.088a7.522,7.522,0,0,1,6.839-4.39H213.8a7.522,7.522,0,0,1,6.839,4.39l1.414,3.088A1.457,1.457,0,0,1,220.734,416.038Z" transform="translate(-179.27 -394.84)" fill="#873f30"/>
        <path id="Trazado_599845" data-name="Trazado 599845" d="M421.259,416.034h-3.895a1.457,1.457,0,0,0,1.324-2.062l-1.414-3.089a7.524,7.524,0,0,0-6.839-4.39h3.893a7.525,7.525,0,0,1,6.84,4.39l1.414,3.089A1.457,1.457,0,0,1,421.259,416.034Z" transform="translate(-379.795 -394.836)" fill="#6c3328"/>
        <g id="Grupo_157256" data-name="Grupo 157256" transform="translate(35.148)">
          <g id="XMLID_233_" transform="translate(3.185 2.681)">
            <path id="Trazado_599846" data-name="Trazado 599846" d="M469.482,341.887a1.009,1.009,0,0,1-.711-1.724l1.092-1.085a1.009,1.009,0,0,1,1.423,1.431l-1.092,1.085A1.006,1.006,0,0,1,469.482,341.887Z" transform="translate(-468.473 -338.784)" fill="#fcc16d"/>
          </g>
          <g id="XMLID_232_">
            <path id="Trazado_599847" data-name="Trazado 599847" d="M445.454,322.083a1.01,1.01,0,0,1-.979-1.255l.379-1.51a1.009,1.009,0,0,1,1.957.491l-.379,1.51A1.009,1.009,0,0,1,445.454,322.083Z" transform="translate(-444.444 -318.555)" fill="#fcc16d"/>
          </g>
          <g id="XMLID_153_" transform="translate(5.424 6.593)">
            <path id="Trazado_599848" data-name="Trazado 599848" d="M486.372,370.685a1.009,1.009,0,0,1-.239-1.989l1.512-.37a1.009,1.009,0,1,1,.479,1.96l-1.512.37A1.016,1.016,0,0,1,486.372,370.685Z" transform="translate(-485.364 -368.297)" fill="#fcc16d"/>
          </g>
        </g>
      </g>
    </g>
  </g>
</svg>
