<svg id="software" xmlns="http://www.w3.org/2000/svg" width="74.757" height="74.757" viewBox="0 0 74.757 74.757">
  <path id="Trazado_166869" data-name="Trazado 166869" d="M77.79,138.223H9.776A2.276,2.276,0,0,1,7.5,135.947V93.776A2.276,2.276,0,0,1,9.776,91.5H77.79a2.276,2.276,0,0,1,2.276,2.276v42.17A2.276,2.276,0,0,1,77.79,138.223Z" transform="translate(-6.405 -78.14)" fill="#685c79"/>
  <path id="Trazado_166870" data-name="Trazado 166870" d="M463.289,91.5h-4.38a2.276,2.276,0,0,1,2.276,2.276v42.17a2.276,2.276,0,0,1-2.276,2.276h4.38a2.276,2.276,0,0,0,2.276-2.276V93.776A2.276,2.276,0,0,0,463.289,91.5Z" transform="translate(-391.904 -78.14)" fill="#594f69"/>
  <rect id="Rectángulo_37183" data-name="Rectángulo 37183" width="37.962" height="63.806" transform="translate(69.281 17.74) rotate(90)" fill="#ade7ff"/>
  <path id="Trazado_166871" data-name="Trazado 166871" d="M151.861,478.88H114.19a2.19,2.19,0,0,1-2.19-2.19h0a2.19,2.19,0,0,1,2.19-2.19h37.67a2.19,2.19,0,0,1,2.19,2.19h0A2.19,2.19,0,0,1,151.861,478.88Z" transform="translate(-95.647 -405.219)" fill="#685c79"/>
  <path id="Trazado_166872" data-name="Trazado 166872" d="M359.273,474.5h-4.4a2.19,2.19,0,0,1,0,4.38h4.4a2.19,2.19,0,0,0,0-4.38Z" transform="translate(-303.059 -405.219)" fill="#594f69"/>
  <path id="Trazado_166873" data-name="Trazado 166873" d="M188.956,420.7H161.3a11.552,11.552,0,0,0,4.715-9.2h18.223A11.552,11.552,0,0,0,188.956,420.7Z" transform="translate(-137.751 -351.417)" fill="#ade7ff"/>
  <path id="Trazado_166874" data-name="Trazado 166874" d="M294.206,411.5h-4.137a11.552,11.552,0,0,0,4.715,9.2h4.137A11.552,11.552,0,0,1,294.206,411.5Z" transform="translate(-247.716 -351.417)" fill="#82d2f5"/>
  <path id="Trazado_166875" data-name="Trazado 166875" d="M187.326,151.767v17.859l-14.163,6.767L159,169.626V151.767L173.163,145Z" transform="translate(-135.785 -123.829)" fill="#ff2c5c"/>
  <path id="Trazado_166876" data-name="Trazado 166876" d="M246.388,151.767l-4.38,2.093-13.848-6.917L232.225,145Z" transform="translate(-194.846 -123.829)" fill="#e62753"/>
  <path id="Trazado_166877" data-name="Trazado 166877" d="M173.163,198.11v17.859L159,209.2V191.343Z" transform="translate(-135.785 -163.405)" fill="#4fb1f5"/>
  <path id="Trazado_166878" data-name="Trazado 166878" d="M256,198.11v17.859l14.163-6.767V191.343Z" transform="translate(-218.622 -163.405)" fill="#ffd659"/>
  <path id="Trazado_166879" data-name="Trazado 166879" d="M327.38,191.343,323,193.436l.066,17.827,4.314-2.061Z" transform="translate(-275.839 -163.405)" fill="#ffbd54"/>
  <circle id="Elipse_5082" data-name="Elipse 5082" cx="2.19" cy="2.19" r="2.19" transform="translate(54.954 1.095)" fill="#ff2c5c"/>
  <circle id="Elipse_5083" data-name="Elipse 5083" cx="2.19" cy="2.19" r="2.19" transform="translate(35.188 1.095)" fill="#ff2c5c"/>
  <circle id="Elipse_5084" data-name="Elipse 5084" cx="2.19" cy="2.19" r="2.19" transform="translate(15.422 1.095)" fill="#ff2c5c"/>
  <path id="Trazado_166880" data-name="Trazado 166880" d="M71.385,12.265H56.068a1.1,1.1,0,0,0,0,2.19H71.385a1.183,1.183,0,0,1,1.182,1.182v42.17a1.183,1.183,0,0,1-1.182,1.182H3.372A1.183,1.183,0,0,1,2.19,57.806V15.636a1.183,1.183,0,0,1,1.182-1.182h24.06v2.19H5.475a1.1,1.1,0,0,0-1.1,1.1V46.674a1.1,1.1,0,0,0,2.19,0V18.835H27.432V24.71l-4.688,2.24a1.1,1.1,0,0,0-.623.988V45.8a1.1,1.1,0,0,0,.623.988l14.163,6.767a1.108,1.108,0,0,0,.944,0l7.962-3.8a1.1,1.1,0,0,0-.944-1.976l-6.395,3.055V35.395l11.973-5.72V45.106l-1.627.777a1.1,1.1,0,0,0,.944,1.976l2.25-1.075a1.1,1.1,0,0,0,.623-.988V27.938a1.1,1.1,0,0,0-.623-.988l-4.688-2.24V18.835H68.186V54.608H6.57V51.347a1.1,1.1,0,0,0-2.19,0V55.7a1.1,1.1,0,0,0,1.1,1.1H69.281a1.1,1.1,0,0,0,1.1-1.1V17.74a1.1,1.1,0,0,0-1.1-1.1H47.325v-2.19H51.4a1.1,1.1,0,0,0,0-2.19h-4.07v-2.19h9.819a1.1,1.1,0,0,0,1.1-1.1v-2.6a3.285,3.285,0,1,0-2.19,0v1.5H46.23a1.1,1.1,0,0,0-1.1,1.1v3.285H38.473V6.382a3.285,3.285,0,1,0-2.19,0v5.883H29.622V8.98a1.1,1.1,0,0,0-1.1-1.1H18.707v-1.5a3.285,3.285,0,1,0-2.19,0v2.6a1.1,1.1,0,0,0,1.1,1.1h9.819v2.19H3.372A3.375,3.375,0,0,0,0,15.636v42.17a3.375,3.375,0,0,0,3.372,3.372H27.113A10.437,10.437,0,0,1,23.2,68.186H18.543a3.285,3.285,0,0,0,0,6.57h37.67a3.285,3.285,0,0,0,0-6.57h-4.65a10.542,10.542,0,0,1-3.919-7.008H71.385a3.375,3.375,0,0,0,3.372-3.372V15.636A3.375,3.375,0,0,0,71.385,12.265ZM57.144,2.19a1.1,1.1,0,1,1-1.1,1.1A1.1,1.1,0,0,1,57.144,2.19Zm-19.766,0a1.1,1.1,0,1,1-1.1,1.1A1.1,1.1,0,0,1,37.378,2.19Zm-19.766,0a1.1,1.1,0,1,1-1.1,1.1A1.1,1.1,0,0,1,17.612,2.19ZM29.622,18.835h6.662v1.646l-6.662,3.183ZM49,27.938,37.378,33.491,25.756,27.938l11.622-5.553Zm-24.69,1.737,11.973,5.72V50.826l-11.973-5.72Zm20.825-6.011-6.662-3.183V18.835h6.662Zm0-9.209v2.19H38.473v-2.19Zm-8.852,0v2.19H29.622v-2.19ZM57.309,71.472a1.1,1.1,0,0,1-1.1,1.1H18.543a1.1,1.1,0,1,1,0-2.19h37.67A1.1,1.1,0,0,1,57.309,71.472Zm-8.886-3.285H26.334a12.35,12.35,0,0,0,2.981-7.008H45.441A12.351,12.351,0,0,0,48.422,68.186Z"/>
</svg>
