<svg xmlns="http://www.w3.org/2000/svg" width="135" height="135" viewBox="0 0 135 135">
  <g id="Grupo_157559" data-name="Grupo 157559" transform="translate(-470 -5485)">
    <circle id="Elipse_5032" data-name="Elipse 5032" cx="67.5" cy="67.5" r="67.5" transform="translate(470 5485)" fill="#083142"/>
    <g id="Layer_31" data-name="Layer 31" transform="translate(494 5509.01)">
      <path id="Trazado_167045" data-name="Trazado 167045" d="M86.466,28.826,70.152,16.59a1.36,1.36,0,0,0-2.175,1.088v4.079H58.868A16.222,16.222,0,0,0,56.895,6.994,1.36,1.36,0,1,0,54.664,8.55,13.5,13.5,0,0,1,57.1,16.318a13.651,13.651,0,0,1-9.828,13.065,6.47,6.47,0,0,0-2.779,1.7l-.988.988-1.014-1.014a6.478,6.478,0,0,0-2.754-1.672,13.646,13.646,0,0,1-9.775-14.275A13.754,13.754,0,0,1,42.967,2.736,13.493,13.493,0,0,1,51.711,5.48a1.359,1.359,0,1,0,1.644-2.166A16.3,16.3,0,0,0,28.142,21.756H19.033V17.677a1.36,1.36,0,0,0-2.175-1.088L.544,28.826A1.36,1.36,0,0,0,.544,31L16.858,43.237a1.36,1.36,0,0,0,2.175-1.088V38.07H31.269a4.079,4.079,0,0,1,3.119,1.457,9.517,9.517,0,0,0-4.478,8.059,6.732,6.732,0,0,0,1.551,4.269,4.068,4.068,0,0,0,1.168,7.967,10.844,10.844,0,0,0,3.706,8.157h-.987A12.249,12.249,0,0,0,23.112,80.216v5.438a1.36,1.36,0,0,0,1.36,1.36H62.538a1.36,1.36,0,0,0,1.36-1.36V80.216A12.249,12.249,0,0,0,51.662,67.98h-.987a10.844,10.844,0,0,0,3.706-8.157,4.079,4.079,0,1,0,0-8.157v-6.8a4.079,4.079,0,0,0-2.567-3.774,4.1,4.1,0,0,1,3.926-3.024H67.977v4.079a1.36,1.36,0,0,0,2.175,1.088L86.466,31a1.36,1.36,0,0,0,0-2.175ZM39.426,40.789h8.157a1.36,1.36,0,0,1,1.36,1.36,1.36,1.36,0,0,0,1.36,1.36,1.36,1.36,0,0,1,1.36,1.36V51.3a2.719,2.719,0,0,1-1.36-2.353,1.36,1.36,0,0,0-2.321-.961l-.893.893a9.457,9.457,0,0,1-6.728,2.787H36.707a4.079,4.079,0,0,1-4.079-4.079,6.806,6.806,0,0,1,6.8-6.8ZM31.269,55.744a1.36,1.36,0,0,1,1.36-1.36V57.1A1.36,1.36,0,0,1,31.269,55.744ZM51.662,70.7a9.529,9.529,0,0,1,9.517,9.517v4.079H58.46V80.216a1.36,1.36,0,0,0-2.719,0v4.079H31.269V80.216a1.36,1.36,0,0,0-2.719,0v4.079H25.831V80.216A9.529,9.529,0,0,1,35.348,70.7Zm0-10.876a8.157,8.157,0,0,1-16.314,0V54.249a6.8,6.8,0,0,0,1.36.136H40.36a12.147,12.147,0,0,0,7.872-2.866,5.459,5.459,0,0,0,3.43,2.686Zm4.079-4.079a1.36,1.36,0,0,1-1.36,1.36V54.385A1.36,1.36,0,0,1,55.741,55.744ZM70.7,39.43V36.711a1.36,1.36,0,0,0-1.36-1.36h-13.6a6.811,6.811,0,0,0-5.864,3.44,4.045,4.045,0,0,0-2.294-.721H39.426a9.476,9.476,0,0,0-2.484.34,6.818,6.818,0,0,0-5.673-3.059h-13.6a1.36,1.36,0,0,0-1.36,1.36V39.43L3.626,29.913,16.314,20.4v2.719a1.36,1.36,0,0,0,1.36,1.36H29.4A16.279,16.279,0,0,0,38.985,32a3.766,3.766,0,0,1,1.584.982l1.975,1.975a1.36,1.36,0,0,0,1.922,0L46.416,33A3.841,3.841,0,0,1,48.025,32,16.323,16.323,0,0,0,57.6,24.475H69.336a1.36,1.36,0,0,0,1.36-1.36V20.4l12.688,9.517Z" transform="translate(0 0)" fill="#2efec7"/>
      <ellipse id="Elipse_5085" data-name="Elipse 5085" cx="1.5" cy="1" rx="1.5" ry="1" transform="translate(38 56.004)" fill="#2efec7"/>
      <ellipse id="Elipse_5086" data-name="Elipse 5086" cx="1.5" cy="1" rx="1.5" ry="1" transform="translate(46 56.004)" fill="#2efec7"/>
      <path id="Trazado_167046" data-name="Trazado 167046" d="M35.157,19.74a9.457,9.457,0,0,1,2.787-6.728L39.4,11.556a4.054,4.054,0,0,0,1.2-2.884A5.677,5.677,0,0,0,34.923,3H32.672A5.677,5.677,0,0,0,27,8.672V9.8a1.36,1.36,0,0,0,2.719,0V8.672a2.957,2.957,0,0,1,2.953-2.953h2.251a2.957,2.957,0,0,1,2.953,2.953,1.359,1.359,0,0,1-.4.961l-1.456,1.456a12.15,12.15,0,0,0-3.584,8.651v.934a1.36,1.36,0,1,0,2.719,0Z" transform="translate(9.707 1.082)" fill="#2efec7"/>
      <circle id="Elipse_5087" data-name="Elipse 5087" cx="1.5" cy="1.5" r="1.5" transform="translate(42 26.004)" fill="#2efec7"/>
    </g>
  </g>
</svg>
