<svg xmlns="http://www.w3.org/2000/svg" xmlns:xlink="http://www.w3.org/1999/xlink" width="135" height="135" viewBox="0 0 135 135">
  <defs>
    <clipPath id="clip-path">
      <path id="path546" d="M0-682.665H85v85H0Z" transform="translate(0 682.665)" fill="#2efec7"/>
    </clipPath>
  </defs>
  <g id="Grupo_157560" data-name="Grupo 157560" transform="translate(-995 -5485)">
    <circle id="Elipse_5033" data-name="Elipse 5033" cx="67.5" cy="67.5" r="67.5" transform="translate(995 5485)" fill="#083142"/>
    <g id="g540" transform="translate(1020 6192.665)">
      <g id="g542" transform="translate(0 -682.665)">
        <g id="g544" clip-path="url(#clip-path)">
          <g id="g550" transform="translate(1.245 62.362)">
            <path id="path552" d="M0,0V3.913H16.1" fill="none" stroke="#2efec7" stroke-linecap="round" stroke-linejoin="round" stroke-miterlimit="10" stroke-width="2.7"/>
          </g>
          <g id="g554" transform="translate(1.245 44.031)">
            <path id="path556" d="M0-88.039v-1.971a8.61,8.61,0,0,1,6.118-8.239l7.653-2.311" transform="translate(0 100.56)" fill="none" stroke="#2efec7" stroke-linecap="round" stroke-linejoin="round" stroke-miterlimit="10" stroke-width="2.7"/>
          </g>
          <g id="g558" transform="translate(21.903 44.031)">
            <path id="path560" d="M0,0,7.654,2.311a8.581,8.581,0,0,1,3.03,1.635" fill="none" stroke="#2efec7" stroke-linecap="round" stroke-linejoin="round" stroke-miterlimit="10" stroke-width="2.7"/>
          </g>
          <g id="g562" transform="translate(15.017 40.003)">
            <path id="path564" d="M0-.089V3.927a3.443,3.443,0,0,0,6.886,0V-.1" transform="translate(0 0.101)" fill="none" stroke="#2efec7" stroke-linecap="round" stroke-linejoin="round" stroke-miterlimit="10" stroke-width="2.7"/>
          </g>
          <g id="g566" transform="translate(9.853 17.944)">
            <path id="path568" d="M-121.042-60.515v5.3a8.69,8.69,0,0,1-8.493,8.734,8.607,8.607,0,0,1-8.722-8.606v-5.431a8.607,8.607,0,0,1,8.607-8.606A8.607,8.607,0,0,1-121.042-60.515Z" transform="translate(138.257 69.121)" fill="none" stroke="#2efec7" stroke-linecap="round" stroke-linejoin="round" stroke-miterlimit="10" stroke-width="2.7"/>
          </g>
          <g id="g570" transform="translate(9.4 60.909)">
            <path id="path572" d="M0-37.733V-43.1" transform="translate(0 43.1)" fill="none" stroke="#2efec7" stroke-linecap="round" stroke-linejoin="round" stroke-miterlimit="10" stroke-width="2.7"/>
          </g>
          <g id="g574" transform="translate(67.655 62.339)">
            <path id="path576" d="M-113.206,0V3.936h-16.1" transform="translate(129.306)" fill="none" stroke="#2efec7" stroke-linecap="round" stroke-linejoin="round" stroke-miterlimit="10" stroke-width="2.7"/>
          </g>
          <g id="g578" transform="translate(69.984 44.031)">
            <path id="path580" d="M0,0,7.653,2.311a8.61,8.61,0,0,1,6.118,8.239V12.5" fill="none" stroke="#2efec7" stroke-linecap="round" stroke-linejoin="round" stroke-miterlimit="10" stroke-width="2.7"/>
          </g>
          <g id="g582" transform="translate(52.413 44.031)">
            <path id="path584" d="M0-27.746a8.581,8.581,0,0,1,3.03-1.635l7.654-2.311" transform="translate(0 31.692)" fill="none" stroke="#2efec7" stroke-linecap="round" stroke-linejoin="round" stroke-miterlimit="10" stroke-width="2.7"/>
          </g>
          <g id="g586" transform="translate(63.097 40.003)">
            <path id="path588" d="M-48.418-.089V3.927a3.443,3.443,0,0,1-3.443,3.443A3.443,3.443,0,0,1-55.3,3.927V-.1" transform="translate(55.304 0.101)" fill="none" stroke="#2efec7" stroke-linecap="round" stroke-linejoin="round" stroke-miterlimit="10" stroke-width="2.7"/>
          </g>
          <g id="g590" transform="translate(57.933 17.944)">
            <path id="path592" d="M0-60.515v5.3a8.69,8.69,0,0,0,8.493,8.734,8.607,8.607,0,0,0,8.722-8.606v-5.431a8.607,8.607,0,0,0-8.607-8.606A8.607,8.607,0,0,0,0-60.515Z" transform="translate(0 69.121)" fill="none" stroke="#2efec7" stroke-linecap="round" stroke-linejoin="round" stroke-miterlimit="10" stroke-width="2.7"/>
          </g>
          <g id="g594" transform="translate(75.6 60.909)">
            <path id="path596" d="M0-37.733V-43.1" transform="translate(0 43.1)" fill="none" stroke="#2efec7" stroke-linecap="round" stroke-linejoin="round" stroke-miterlimit="10" stroke-width="2.7"/>
          </g>
          <g id="g598" transform="translate(38.538 54.741)">
            <path id="path600" d="M0,0,2.008,4.715H5.915L7.923,0" fill="none" stroke="#2efec7" stroke-linecap="round" stroke-linejoin="round" stroke-miterlimit="10" stroke-width="2.7"/>
          </g>
          <g id="g602" transform="translate(17.345 48.897)">
            <path id="path604" d="M-93.652-179.066h-13.319v-14.08a10.061,10.061,0,0,1,7.66-9.772l6.571-1.615" transform="translate(106.972 204.533)" fill="none" stroke="#2efec7" stroke-linecap="round" stroke-linejoin="round" stroke-miterlimit="10" stroke-width="2.7"/>
          </g>
          <g id="g606" transform="translate(53.424 48.897)">
            <path id="path608" d="M0,0,6.571,1.615a10.061,10.061,0,0,1,7.66,9.772v14.08H.911" fill="none" stroke="#2efec7" stroke-linecap="round" stroke-linejoin="round" stroke-miterlimit="10" stroke-width="2.7"/>
          </g>
          <g id="g610" transform="translate(37.134 38.643)">
            <path id="path612" d="M0,0V5.2" transform="translate(0)" fill="none" stroke="#2efec7" stroke-linecap="round" stroke-linejoin="round" stroke-miterlimit="10" stroke-width="2.7"/>
          </g>
          <g id="g614" transform="translate(47.866 38.643)">
            <path id="path616" d="M0-36.554v-5.2" transform="translate(0 41.753)" fill="none" stroke="#2efec7" stroke-linecap="round" stroke-linejoin="round" stroke-miterlimit="10" stroke-width="2.7"/>
          </g>
          <g id="g618" transform="translate(32.438 17.504)">
            <path id="path620" d="M0-57.837l1.367-2.155a4.025,4.025,0,0,1,3.4-1.87H8.576a8.05,8.05,0,0,0,6.4-3.17l.785-1.03a6.224,6.224,0,0,0,1.41,2.455,8.48,8.48,0,0,0,2.95,1.745" transform="translate(0 66.063)" fill="none" stroke="#2efec7" stroke-linecap="round" stroke-linejoin="round" stroke-miterlimit="10" stroke-width="2.7"/>
          </g>
          <g id="g622" transform="translate(27.071 1.245)">
            <path id="path624" d="M-216.968-162.726v-7.714A15.429,15.429,0,0,0-232.4-185.869a15.429,15.429,0,0,0-15.428,15.429v7.714" transform="translate(247.825 185.869)" fill="none" stroke="#2efec7" stroke-linecap="round" stroke-linejoin="round" stroke-miterlimit="10" stroke-width="2.7"/>
          </g>
          <g id="g626" transform="translate(52.562 21.705)">
            <path id="path628" d="M0-56.6H2.683a2.683,2.683,0,0,0,2.683-2.683v-2.683A2.683,2.683,0,0,0,2.683-64.65H0" transform="translate(0 64.65)" fill="none" stroke="#2efec7" stroke-linecap="round" stroke-linejoin="round" stroke-miterlimit="10" stroke-width="2.7"/>
          </g>
          <g id="g630" transform="translate(27.071 21.705)">
            <path id="path632" d="M-37.733-56.6h-2.683A2.683,2.683,0,0,1-43.1-59.284v-2.683a2.683,2.683,0,0,1,2.683-2.683h2.683" transform="translate(43.1 64.65)" fill="none" stroke="#2efec7" stroke-linecap="round" stroke-linejoin="round" stroke-miterlimit="10" stroke-width="2.7"/>
          </g>
          <g id="g634" transform="translate(32.438 21.705)">
            <path id="path636" d="M0,0V8.385a10.062,10.062,0,1,0,20.124,0V0" fill="none" stroke="#2efec7" stroke-linecap="round" stroke-linejoin="round" stroke-miterlimit="10" stroke-width="2.7"/>
          </g>
          <g id="g638" transform="translate(31.576 43.842)">
            <path id="path640" d="M-39.076,0l-5.557,5.055,3.361,6.892a1.341,1.341,0,0,0,2.142.373l5.421-5.277-5.366-3.354Z" transform="translate(44.633)" fill="none" stroke="#2efec7" stroke-linecap="round" stroke-linejoin="round" stroke-miterlimit="10" stroke-width="2.7"/>
          </g>
          <g id="g642" transform="translate(42.5 43.842)">
            <path id="path644" d="M-37.733,0l5.557,5.055-3.361,6.892a1.341,1.341,0,0,1-2.142.373L-43.1,7.044l5.366-3.354Z" transform="translate(43.1)" fill="none" stroke="#2efec7" stroke-linecap="round" stroke-linejoin="round" stroke-miterlimit="10" stroke-width="2.7"/>
          </g>
          <g id="g646" transform="translate(48.202 14.559)">
            <path id="path648" d="M0-20.709l1.99-2.945" transform="translate(0 23.655)" fill="none" stroke="#2efec7" stroke-linecap="round" stroke-linejoin="round" stroke-miterlimit="10" stroke-width="2.7"/>
          </g>
          <g id="g650" transform="translate(59.773 67.912)">
            <path id="path652" d="M0-45.365v-5.366l1.085-1.085" transform="translate(0 51.817)" fill="none" stroke="#2efec7" stroke-linecap="round" stroke-linejoin="round" stroke-miterlimit="10" stroke-width="2.7"/>
          </g>
          <g id="g654" transform="translate(24.141 67.912)">
            <path id="path656" d="M-7.632-45.365v-5.366l-1.085-1.085" transform="translate(8.717 51.817)" fill="none" stroke="#2efec7" stroke-linecap="round" stroke-linejoin="round" stroke-miterlimit="10" stroke-width="2.7"/>
          </g>
          <g id="g658" transform="translate(30.351 59.457)">
            <path id="path660" d="M-154.973-35.813a12.094,12.094,0,0,1,2.258,7.056,12.148,12.148,0,0,1-12.149,12.149,12.148,12.148,0,0,1-12.149-12.149,12.148,12.148,0,0,1,12.149-12.149,12.123,12.123,0,0,1,5.523,1.323" transform="translate(177.013 40.907)" fill="none" stroke="#2efec7" stroke-linecap="round" stroke-linejoin="round" stroke-miterlimit="10" stroke-width="2.7"/>
          </g>
          <g id="g662" transform="translate(35.714 64.585)">
            <path id="path664" d="M-44.089-83.743l-2.357,1.017a1.3,1.3,0,0,1-1.812-1.317l.238-2.556a1.3,1.3,0,0,0-.319-.981l-1.7-1.928a1.3,1.3,0,0,1,.692-2.13l2.5-.563A1.3,1.3,0,0,0-46-92.808l1.31-2.208a1.3,1.3,0,0,1,2.24,0l1.31,2.208a1.3,1.3,0,0,0,.834.606l2.5.563a1.3,1.3,0,0,1,.692,2.13l-1.7,1.928a1.3,1.3,0,0,0-.319.981l.238,2.556A1.3,1.3,0,0,1-40.7-82.727l-2.357-1.017A1.3,1.3,0,0,0-44.089-83.743Z" transform="translate(50.359 95.653)" fill="none" stroke="#2efec7" stroke-linecap="round" stroke-linejoin="round" stroke-miterlimit="10" stroke-width="2.7"/>
          </g>
        </g>
      </g>
    </g>
  </g>
</svg>
