<svg xmlns="http://www.w3.org/2000/svg" width="105" height="70" viewBox="0 0 105 70">
  <g id="Grupo_110840" data-name="Grupo 110840" transform="translate(-600 -609)">
    <g id="libro_2_" data-name="libro(2)" transform="translate(619.885 596.64)">
      <path id="Trazado_217418" data-name="Trazado 217418" d="M50.956,52.531V63.156L38.989,64.592l-.412-.053C36.569,64.073,35,60.111,35,55.284c0-5.146,1.782-9.308,3.989-9.308l32.83-3.936c-2.008.465-3.577,4.428-3.577,9.255,0,5.146,1.782,9.308,3.989,9.308l-13.3,1.6V51.561l-7.978.957Z" transform="translate(11.539 7.562)" fill="#eaeaea"/>
      <path id="Trazado_217419" data-name="Trazado 217419" d="M54.978,59.838V66.22L50.989,60.9,47,67.55V50.171l7.978-.971Z" transform="translate(15.496 9.922)" fill="#ed1c24"/>
      <path id="Trazado_217420" data-name="Trazado 217420" d="M72.232,60.6l-.957.12L58.935,62.2V58.209a6.09,6.09,0,0,0,5.319-6.16v-.262a4.239,4.239,0,0,0-4.707-4.282l-20.557,2.46a2.726,2.726,0,0,0-2.138,1.452,7.062,7.062,0,0,0-.2,7.416,3.3,3.3,0,0,0,1.925,1.717l.412.053,11.967-1.436v3.989L38.989,64.592l-.412-.053a1.394,1.394,0,0,1-.372-.133,2.307,2.307,0,0,1-.346-.2.041.041,0,0,1-.027-.013c-.093-.066-.2-.146-.293-.226a3.566,3.566,0,0,1-.372-.4,3.315,3.315,0,0,1-.306-.412,7.047,7.047,0,0,1-.545-.944c-.106-.226-.2-.465-.306-.718-.066-.186-.133-.386-.2-.585a5.246,5.246,0,0,1-.2-.691c-.066-.226-.12-.465-.173-.7a16.044,16.044,0,0,1-.346-2.234v-.04A18.871,18.871,0,0,1,35,55.284c0-5.146,1.782-9.308,3.989-9.308l32.83-3.936a.25.25,0,0,0-.133.053c-1.941.585-3.444,4.481-3.444,9.2,0,5.146,1.782,9.308,3.989,9.308Z" transform="translate(11.539 7.562)" fill="#dad4d4"/>
      <path id="Trazado_217421" data-name="Trazado 217421" d="M52.319,49.519v2.427a8.244,8.244,0,0,1-5.264,7.779l-.055.02V67.55L50.989,60.9l3.989,5.319V49.2Z" transform="translate(15.496 9.922)" fill="#c1272d"/>
      <path id="Trazado_217422" data-name="Trazado 217422" d="M82.452,25.284l-.293.04L49.21,29.273,16.832,25.457h-.013l-6.1-.718L4,23.954l30.889-3.71a19.907,19.907,0,0,1,4.707,0Z" transform="translate(1.319 0.33)" fill="#7070f2"/>
      <path id="Trazado_217423" data-name="Trazado 217423" d="M71.9,35.957l-.293.04-32.95,3.949a1.037,1.037,0,0,1-.293-.04C37.037,39.574,36,37.048,36,33.963c0-3.311,1.2-5.984,2.659-5.984l32.95-3.949c-1.33.332-2.367,2.859-2.367,5.944C69.242,33.285,70.439,35.957,71.9,35.957Z" transform="translate(11.869 1.624)" fill="#eaeaea"/>
      <path id="Trazado_217424" data-name="Trazado 217424" d="M71.9,44.957a1.462,1.462,0,0,0-.412.053l-32.83,3.936a1.037,1.037,0,0,1-.293-.04C37.037,48.574,36,46.048,36,42.963c0-3.311,1.2-5.984,2.659-5.984l32.95-3.949c-1.33.332-2.367,2.859-2.367,5.944C69.242,42.285,70.439,44.957,71.9,44.957Z" transform="translate(11.869 4.591)" fill="#eaeaea"/>
      <path id="Trazado_217425" data-name="Trazado 217425" d="M71.609,33.03c-.851.213-1.582,1.316-1.995,2.9l-30.955,3.71c-1.25,0-2.314,1.968-2.593,4.627-.04-.412-.066-.851-.066-1.3,0-3.311,1.2-5.984,2.659-5.984Z" transform="translate(11.869 4.591)" fill="#dad4d4"/>
      <path id="Trazado_217426" data-name="Trazado 217426" d="M71.609,24.03c-.851.213-1.582,1.316-1.995,2.9l-30.955,3.71c-1.25,0-2.314,1.968-2.593,4.627-.04-.412-.066-.851-.066-1.3,0-3.311,1.2-5.984,2.659-5.984Z" transform="translate(11.869 1.624)" fill="#dad4d4"/>
      <path id="Trazado_217427" data-name="Trazado 217427" d="M14.031,24.13l32.378,3.816c-1.463,0-2.659,2.673-2.659,5.984,0,3.085,1.037,5.611,2.367,5.944l-9.547-1.117-5.851-.691L13.339,36.017a15.064,15.064,0,0,1-.838-5.412c0-3.125.638-5.758,1.516-6.476Z" transform="translate(4.12 1.657)" fill="#5e5eea"/>
      <path id="Trazado_217428" data-name="Trazado 217428" d="M40.594,36.247a1.037,1.037,0,0,0,.293.04c-1.463,0-2.659,2.673-2.659,5.984,0,3.085,1.037,5.611,2.367,5.944l-8.151-.957L30.222,47a13.237,13.237,0,0,1-.971-5.4c0-3.151.771-5.8,1.8-6.476Z" transform="translate(9.642 5.283)" fill="#99e0d4"/>
      <path id="Trazado_217429" data-name="Trazado 217429" d="M40.345,45.207a1.037,1.037,0,0,0,.293.04c-2.207,0-3.989,4.162-3.989,9.308,0,4.827,1.569,8.789,3.577,9.255l-7.938-.931C30.944,61.23,30,57.653,30,53.5c0-4.042.891-7.539,2.194-9.255Z" transform="translate(9.891 8.29)" fill="#ffca3a"/>
      <path id="Trazado_217430" data-name="Trazado 217430" d="M33.606,63.031l-5.372-.625C26.9,60.717,26,57.18,26,53.1s.917-7.632,2.247-9.308l3.045.359,2.221.253c-1.3,1.715-2.194,5.212-2.194,9.255,0,4.149.944,7.726,2.287,9.374Z" transform="translate(8.572 8.138)" fill="#f7931e"/>
      <path id="Trazado_217431" data-name="Trazado 217431" d="M26.6,34.61l5.851.691c-1.024.678-1.8,3.324-1.8,6.476a13.237,13.237,0,0,0,.971,5.4l-3.045-.359-2.167-.253a10.9,10.9,0,0,1-1.409-6.117,11.1,11.1,0,0,1,1.6-5.837Z" transform="translate(8.237 5.112)" fill="#7070f2"/>
      <path id="Trazado_217432" data-name="Trazado 217432" d="M31.353,44.147l2.167.253c-1.33,1.675-2.247,5.212-2.247,9.308s.9,7.619,2.234,9.308l-21.568-2.54a17.755,17.755,0,0,1-1.915-8.829c0-4.468,1.1-8.271,2.633-9.707Z" transform="translate(3.299 7.529)" fill="#ffca3a"/>
      <path id="Trazado_217433" data-name="Trazado 217433" d="M16.8,33.423l17.379,2.048a11.1,11.1,0,0,0-1.6,5.837,10.9,10.9,0,0,0,1.409,6.117L15.3,45.217l-5.332-.625-5.305-.625C3.2,43.967,2,41.295,2,37.984S3.2,32,4.659,32l6.5.758v.013Z" transform="translate(0.659 4.251)" fill="#99e0d4"/>
      <path id="Trazado_217434" data-name="Trazado 217434" d="M40.569,46.15l-8.151-.957L30.2,44.94a11.143,11.143,0,0,1-.878-3.55L38.4,42.427c.346,2.008,1.17,3.471,2.167,3.723Z" transform="translate(9.667 7.347)" fill="#5bd3c7"/>
      <path id="Trazado_217435" data-name="Trazado 217435" d="M31.576,45.1l-3.045-.359-2.167-.253A7.675,7.675,0,0,1,25.14,40.91l5.558.638a11.143,11.143,0,0,0,.878,3.55Z" transform="translate(8.289 7.189)" fill="#5858dd"/>
      <path id="Trazado_217436" data-name="Trazado 217436" d="M33.94,45.357l-18.7-2.207-5.332-.625L4.607,41.9c-1.09,0-2.034-1.489-2.447-3.63l7.7.878,9.015,1.037,13.842,1.6A7.675,7.675,0,0,0,33.94,45.357Z" transform="translate(0.712 6.319)" fill="#5bd3c7"/>
      <path id="Trazado_217437" data-name="Trazado 217437" d="M9.4,23.59l6.1.718c-.878.718-1.516,3.351-1.516,6.476a15.064,15.064,0,0,0,.838,5.412l-5.638-.652v-.013A12.6,12.6,0,0,1,8,29.454,12.538,12.538,0,0,1,9.4,23.59Z" transform="translate(2.633 1.479)" fill="#99e0d4"/>
      <path id="Trazado_217438" data-name="Trazado 217438" d="M8.644,41.47l5.332.625c-1.529,1.436-2.633,5.239-2.633,9.707a17.755,17.755,0,0,0,1.915,8.829l-5.305-.625a17.654,17.654,0,0,1-1.928-8.842c0-4.454,1.09-8.257,2.62-9.693Z" transform="translate(1.98 7.374)" fill="#f7931e"/>
      <path id="Trazado_217439" data-name="Trazado 217439" d="M4.659,23l6.715.785a12.538,12.538,0,0,0-1.4,5.864,12.6,12.6,0,0,0,1.183,6.077l-6.5-.758C3.2,34.967,2,32.295,2,28.984S3.2,23,4.659,23Z" transform="translate(0.659 1.284)" fill="#5e5eea"/>
      <path id="Trazado_217440" data-name="Trazado 217440" d="M46.069,37.566,13.292,33.71a10.5,10.5,0,0,1-.652-2.58l31.487,3.71c.412,1.489,1.117,2.526,1.941,2.726Z" transform="translate(4.167 3.965)" fill="#5b52d8"/>
      <path id="Trazado_217441" data-name="Trazado 217441" d="M9.108,33.226v-.013A7.2,7.2,0,0,1,8.23,30.62l5.864.678a10.5,10.5,0,0,0,.652,2.58Z" transform="translate(2.713 3.796)" fill="#5bd3c7"/>
      <path id="Trazado_217442" data-name="Trazado 217442" d="M11.079,33.526l-6.5-.758c-1,0-1.875-1.25-2.327-3.1a1.5,1.5,0,0,0,1,.439l6.954.824a7.2,7.2,0,0,0,.878,2.593Z" transform="translate(0.742 3.483)" fill="#5b52d8"/>
      <path id="Trazado_217443" data-name="Trazado 217443" d="M4.989,41l5.305.625c-1.529,1.436-2.62,5.239-2.62,9.693A17.654,17.654,0,0,0,9.6,60.161l-4.614-.545C2.782,59.616,1,55.454,1,50.308S2.782,41,4.989,41Z" transform="translate(0.33 7.219)" fill="#ffca3a"/>
      <path id="Trazado_217444" data-name="Trazado 217444" d="M40.087,60.21l-7.938-.931A10.249,10.249,0,0,1,30.42,55.17l1.05.12,5.651.612C37.747,58.268,38.837,59.917,40.087,60.21Z" transform="translate(10.029 11.89)" fill="#f7931e"/>
      <path id="Trazado_217445" data-name="Trazado 217445" d="M33.471,59.421,28.1,58.8A10.535,10.535,0,0,1,26.41,54.74l.572.066,4.76.505a10.249,10.249,0,0,0,1.729,4.109Z" transform="translate(8.707 11.749)" fill="#f15a24"/>
      <path id="Trazado_217446" data-name="Trazado 217446" d="M33.377,59.369,11.809,56.83A11.987,11.987,0,0,1,10.4,53l21.288,2.314a10.535,10.535,0,0,0,1.689,4.056Z" transform="translate(3.429 11.175)" fill="#f7931e"/>
      <path id="Trazado_217447" data-name="Trazado 217447" d="M13.125,56.975,7.819,56.35A11.846,11.846,0,0,1,6.41,52.56l3.856.426,1.449.16a11.987,11.987,0,0,0,1.409,3.83Z" transform="translate(2.113 11.03)" fill="#f15a24"/>
      <path id="Trazado_217448" data-name="Trazado 217448" d="M9.422,56.524l-4.614-.545c-1.356,0-2.54-1.556-3.258-3.949l4.574.505,1.888.2a11.846,11.846,0,0,0,1.409,3.79Z" transform="translate(0.511 10.855)" fill="#f7931e"/>
      <path id="Trazado_217449" data-name="Trazado 217449" d="M83.8,38.911l.023-.011a1.33,1.33,0,0,0,1.291-1.319,1.315,1.315,0,0,0-1.315-1.33c-.375-.12-1.359-1.738-1.359-4.654s.985-4.534,1.36-4.654l.019-.009a1.33,1.33,0,0,0,.106-2.641l-42.855-5.04a21.292,21.292,0,0,0-5.022,0L5.161,22.964h-.02c-2.5.173-3.811,3.755-3.811,7.3a10.417,10.417,0,0,0,1.6,5.984,10.41,10.41,0,0,0-1.6,5.984A10.724,10.724,0,0,0,2.792,48.03C.956,49.878,0,53.713,0,57.527c0,5.242,1.8,10.548,5.231,10.638l45.142,5.311a1.224,1.224,0,0,0,.156.008,1.25,1.25,0,0,0,.158-.009l10.479-1.258v5.256a1.33,1.33,0,0,0,.975,1.282,1.359,1.359,0,0,0,.355.048,1.33,1.33,0,0,0,1.139-.645L66.607,73.2l2.8,3.736a1.33,1.33,0,0,0,2.393-.8v-5.2l12.126-1.456a1.33,1.33,0,0,0-.158-2.65c-.931,0-2.659-3.029-2.659-7.978,0-4.907,1.633-7.747,2.659-7.978a1.34,1.34,0,0,0,1.344-1.33,1.316,1.316,0,0,0-1.166-1.319,1.555,1.555,0,0,0-.158-.011c-.382-.146-1.35-1.761-1.35-4.654,0-2.925.985-4.534,1.36-4.654Zm-40.87,31.01a16.467,16.467,0,0,1-1.711-8.126,17.6,17.6,0,0,1,1.533-7.845l4.379.515a16.806,16.806,0,0,0-1.923,8.381,18.39,18.39,0,0,0,1.463,7.515Zm-5.367-.632A16.779,16.779,0,0,1,35.9,61.236a17.208,17.208,0,0,1,1.577-7.9l2.487.293a21.638,21.638,0,0,0-1.4,8.166,22.373,22.373,0,0,0,1.259,7.76ZM16.072,66.763a18.072,18.072,0,0,1-1.419-7.579A15.774,15.774,0,0,1,16.5,50.878L34.539,53c.04,0,.076.024.116.024h.031a21.666,21.666,0,0,0-1.443,8.216,22.558,22.558,0,0,0,1.231,7.69Zm-5.309-.624a17.951,17.951,0,0,1-1.428-7.6,15.782,15.782,0,0,1,1.835-8.292l2.476.291a20.649,20.649,0,0,0-1.657,8.643,23.117,23.117,0,0,0,1.064,7.231ZM5.348,46.889c-.375-.12-1.359-1.738-1.359-4.654,0-2.891.965-4.5,1.319-4.646l6.3.734c.023,0,.04.017.061.02l26.746,3.138a15.831,15.831,0,0,0-.85,5.408,17.624,17.624,0,0,0,.411,3.831l-2.544-.3a11.864,11.864,0,0,1-.859-4.863,10.463,10.463,0,0,1,.266-2.36,1.33,1.33,0,0,0-2.592-.6,13.2,13.2,0,0,0-.334,2.959,16.726,16.726,0,0,0,.578,4.521L16.019,48.144h-.028l-5.3-.625h-.035ZM12.818,26.5l5.163.605h.013L47.541,30.59a11.9,11.9,0,0,0-1,5,12.736,12.736,0,0,0,.7,4.255L18.459,36.463a16.063,16.063,0,0,1-.508-4.2,19.613,19.613,0,0,1,.153-2.489,1.33,1.33,0,1,0-2.638-.34,22.272,22.272,0,0,0-.174,2.83,20.177,20.177,0,0,0,.363,3.872l-2.968-.348a13.846,13.846,0,0,1-.719-4.853,11.9,11.9,0,0,1,.851-4.431Zm37.71,4.431a1.256,1.256,0,0,0,.157-.009l29.785-3.57a12.726,12.726,0,0,0-.689,4.244A11.865,11.865,0,0,0,80.788,36.6L50.543,40.228c-.386-.153-1.344-1.753-1.344-4.642,0-2.916.984-4.534,1.33-4.654ZM40.822,51.054a13.668,13.668,0,0,1-.6-4.165,10.753,10.753,0,0,1,.973-5.081l6.348.745a11.869,11.869,0,0,0-1.005,5,12.736,12.736,0,0,0,.7,4.255ZM50.547,52.2c-.388-.153-1.348-1.753-1.348-4.643,0-2.916.984-4.534,1.33-4.654a1.249,1.249,0,0,0,.158-.009l29.785-3.57a12.726,12.726,0,0,0-.69,4.244,11.729,11.729,0,0,0,1.037,5ZM36.365,21.891a18.686,18.686,0,0,1,4.395,0l31.753,3.734L50.528,28.264l-32.223-3.8h-.013l-1.687-.2ZM5.3,25.614l4.8.562a14.748,14.748,0,0,0-.791,4.756,19.281,19.281,0,0,0,.5,4.506l-4.456-.517c-.375-.12-1.359-1.738-1.359-4.654,0-2.869.952-4.481,1.312-4.647ZM5.319,65.5c-.931,0-2.659-3.029-2.659-7.978,0-4.92,1.7-7.933,2.639-7.972l3.024.355a20.7,20.7,0,0,0-1.647,8.627,23.038,23.038,0,0,0,1.076,7.244l-2.276-.266a1.2,1.2,0,0,0-.156-.011Zm62.23,4.521a1.31,1.31,0,0,0-1.133-.532,1.33,1.33,0,0,0-1.064.644l-1.526,2.534V61.266l5.319-.641V72.153ZM71.8,68.261V60.3l.835-.1a1.33,1.33,0,0,0-.315-2.642l-1.995.242H70.32l-7.978.957c-.015,0-.027.011-.041.012l-1.657.2a1.33,1.33,0,0,0,.153,2.65,1.257,1.257,0,0,0,.157-.009l.213-.027v7.95L50.528,70.814l-.117-.013c-.917-.222-2.542-3.058-2.542-7.956,0-4.949,1.729-7.978,2.659-7.978a1.249,1.249,0,0,0,.158-.009l29.228-3.5a18.375,18.375,0,0,0-1.463,7.5,16.863,16.863,0,0,0,1.913,8.377Z" transform="translate(0)" fill="#472b3c"/>
    </g>
    <rect id="Rectángulo_43636" data-name="Rectángulo 43636" width="105" height="70" transform="translate(600 609)" fill="none"/>
  </g>
</svg>
