<svg xmlns="http://www.w3.org/2000/svg" width="78.315" height="78.315" viewBox="0 0 78.315 78.315">
  <g id="socios" transform="translate(-1 -1)">
    <path id="Trazado_167047" data-name="Trazado 167047" d="M18.421,52.526v2.526H3.263A1.267,1.267,0,0,1,2,53.789V51.263A1.267,1.267,0,0,1,3.263,50H15.895A2.534,2.534,0,0,1,18.421,52.526Z" transform="translate(0.263 12.894)" fill="#cf9e76"/>
    <path id="Trazado_167048" data-name="Trazado 167048" d="M65.421,51.263v2.526a1.267,1.267,0,0,1-1.263,1.263H49V52.526A2.534,2.534,0,0,1,51.526,50H64.158A1.267,1.267,0,0,1,65.421,51.263Z" transform="translate(12.631 12.894)" fill="#cf9e76"/>
    <path id="Trazado_167049" data-name="Trazado 167049" d="M54,54h5.053V64.105H54Z" transform="translate(13.947 13.947)" fill="#b27946"/>
    <path id="Trazado_167050" data-name="Trazado 167050" d="M6,54h5.053V64.105H6Z" transform="translate(1.316 13.947)" fill="#b27946"/>
    <path id="Trazado_167051" data-name="Trazado 167051" d="M30,50h5.053V65.158H30Z" transform="translate(7.631 12.894)" fill="#b27946"/>
    <path id="Trazado_167052" data-name="Trazado 167052" d="M17.789,45H59.473a7.578,7.578,0,0,0-7.49,6.455l-.922-.139H22.4l-.909.139A7.578,7.578,0,0,0,14,45Z" transform="translate(3.421 11.578)" fill="#cf9e76"/>
    <path id="Trazado_167053" data-name="Trazado 167053" d="M15.339,48.421H2.114A6.91,6.91,0,0,1,2,47.158V39.705a7.708,7.708,0,0,1,15.234-1.667l.973,4.345a1.258,1.258,0,0,0,1.225.985h5.305a2.545,2.545,0,0,1,2.526,2.526,2.534,2.534,0,0,1-2.526,2.526h-9.4Z" transform="translate(0.263 8.157)" fill="#fcd770"/>
    <path id="Trazado_167054" data-name="Trazado 167054" d="M53.924,48.421h-9.4A2.534,2.534,0,0,1,42,45.895a2.545,2.545,0,0,1,2.526-2.526h5.305a1.258,1.258,0,0,0,1.225-.985l.973-4.345a7.709,7.709,0,0,1,15.234,1.667v7.453a6.91,6.91,0,0,1-.114,1.263Z" transform="translate(10.789 8.157)" fill="#fcd770"/>
    <g id="Grupo_110713" data-name="Grupo 110713" transform="translate(2.377 46.473)">
      <path id="Trazado_167055" data-name="Trazado 167055" d="M17.134,45a7.578,7.578,0,0,1,7.49,6.455,6.64,6.64,0,0,1,.088,1.124V63.316a3.158,3.158,0,1,1-6.316,0V53.842a2.534,2.534,0,0,0-2.526-2.526H9.555A7.566,7.566,0,0,1,2.09,45H17.134Z" transform="translate(-2.09 -34.895)" fill="#838f9b"/>
      <path id="Trazado_167056" data-name="Trazado 167056" d="M50.316,56.368v6.947a3.158,3.158,0,1,1-6.316,0V52.579a6.64,6.64,0,0,1,.088-1.124A7.578,7.578,0,0,1,51.579,45H66.623a7.566,7.566,0,0,1-7.465,6.316H52.842a2.534,2.534,0,0,0-2.526,2.526Z" transform="translate(8.938 -34.895)" fill="#838f9b"/>
      <path id="Trazado_167057" data-name="Trazado 167057" d="M32,37h7.579V47.105H32Z" transform="translate(5.781 -37)" fill="#838f9b"/>
      <path id="Trazado_167058" data-name="Trazado 167058" d="M26,37h7.579V47.105H26Z" transform="translate(4.202 -37)" fill="#838f9b"/>
    </g>
    <path id="Trazado_167059" data-name="Trazado 167059" d="M27.263,2V18.762l-9.107-8.274a3.5,3.5,0,0,0-2.337-.909h-.24a3.473,3.473,0,0,0-2.286,6.088L20.77,22.21H2V2Z" transform="translate(0.263 0.263)" fill="#e6e9ed"/>
    <path id="Trazado_167060" data-name="Trazado 167060" d="M66.21,2V22.21H47.44l7.478-6.543a3.463,3.463,0,0,0,1.187-2.615,3.45,3.45,0,0,0-3.474-3.474h-.24a3.5,3.5,0,0,0-2.337.909L46,14.177V2Z" transform="translate(11.841 0.263)" fill="#e6e9ed"/>
    <path id="Trazado_167061" data-name="Trazado 167061" d="M18.665,20.631l-7.478-6.543A3.473,3.473,0,0,1,13.474,8h.24a3.5,3.5,0,0,1,2.337.909l9.107,8.274,1.491,1.364a10.25,10.25,0,0,0,5.368,2.526l3.676.518a4.73,4.73,0,0,0,.568.152l-.013.152-.985,11.368,2.526,2.526,2.526-2.526L39.33,21.857H38.56a7.708,7.708,0,0,0,1.326-.265l3.676-.518a10.25,10.25,0,0,0,5.368-2.526L55.473,12.6l4.055-3.688A3.5,3.5,0,0,1,61.865,8h.24a3.45,3.45,0,0,1,3.474,3.474,3.463,3.463,0,0,1-1.187,2.615l-7.478,6.543L47.1,29.221a5.063,5.063,0,0,0-1.731,3.815v11.6H30.21v-11.6a5.062,5.062,0,0,0-1.731-3.815Z" transform="translate(2.368 1.842)" fill="#ff826e"/>
    <path id="Trazado_167062" data-name="Trazado 167062" d="M32.526,19.032a7.676,7.676,0,0,0,.771-.038h.771L35.053,30.4l-2.526,2.526L30,30.4l.985-11.368L31,18.88A7.557,7.557,0,0,0,32.526,19.032Z" transform="translate(7.631 4.705)" fill="#e6e9ed"/>
    <ellipse id="Elipse_5088" data-name="Elipse 5088" cx="7" cy="6" rx="7" ry="6" transform="translate(4 27.315)" fill="#f0d0b4"/>
    <path id="Trazado_167063" data-name="Trazado 167063" d="M33.579,7a7.575,7.575,0,0,1,2.1,14.855l-2.1.3-2.1-.3A7.575,7.575,0,0,1,33.579,7Z" transform="translate(6.579 1.579)" fill="#f0d0b4"/>
    <ellipse id="Elipse_5089" data-name="Elipse 5089" cx="6.5" cy="6" rx="6.5" ry="6" transform="translate(63 27.315)" fill="#f0d0b4"/>
    <path id="Trazado_167064" data-name="Trazado 167064" d="M50.293,32.02l9.467-8.284H79.315V1H56.578V13.876l-6.131,5.574a8.815,8.815,0,0,1-3.076,1.8,8.841,8.841,0,1,0-14.429,0,8.821,8.821,0,0,1-3.074-1.8l-1.079-.981V1H1V23.737H20.555l9.467,8.284a3.786,3.786,0,0,1,1.293,2.851V55.315H28.557a3.747,3.747,0,0,0,.232-1.263A3.794,3.794,0,0,0,25,50.263H19.7l-.965-4.343a8.909,8.909,0,0,0-3.83-5.531,7.573,7.573,0,1,0-8.611-.7A8.98,8.98,0,0,0,1,47.868v7.447a8.808,8.808,0,0,0,2.666,6.316h-.14A2.529,2.529,0,0,0,1,64.157v2.526A2.529,2.529,0,0,0,3.526,69.21H6.053v7.579H3.526v2.526H76.789V76.789H74.262V69.21h2.526a2.529,2.529,0,0,0,2.526-2.526V64.157a2.529,2.529,0,0,0-2.526-2.526h-.14a8.808,8.808,0,0,0,2.667-6.316V47.868a8.981,8.981,0,0,0-5.293-8.175,7.583,7.583,0,1,0-8.611.7,8.914,8.914,0,0,0-3.83,5.531l-.964,4.341h-5.3a3.794,3.794,0,0,0-3.789,3.789,3.747,3.747,0,0,0,.232,1.263H49V34.871a3.786,3.786,0,0,1,1.293-2.851ZM59.1,3.526H76.789V21.21H62.648l4.945-4.328a4.739,4.739,0,0,0-3.122-8.3h-.234A4.727,4.727,0,0,0,61.05,9.812L59.1,11.58Zm-17.729,31.1-1.218,1.218L38.94,34.627l.834-9.647c.128.005.254.019.384.019s.255-.014.383-.019ZM40.157,9.842a6.3,6.3,0,0,1,1.665,12.38l-1.665.239-1.665-.237A6.3,6.3,0,0,1,40.157,9.842ZM3.526,21.21V3.526H26.263V16.173l-7-6.362a4.734,4.734,0,0,0-3.187-1.232h-.235a4.739,4.739,0,0,0-3.12,8.305l4.944,4.326Zm10.862-6.227a2.212,2.212,0,0,1,1.455-3.878h.235a2.208,2.208,0,0,1,1.488.576l10.605,9.64a11.34,11.34,0,0,0,6.038,2.842l3.063.437-.949,10.982,3.834,3.835,3.835-3.835L43.042,24.6l3.064-.437a11.348,11.348,0,0,0,6.039-2.842l10.6-9.64a2.2,2.2,0,0,1,1.487-.576h.234a2.212,2.212,0,0,1,1.458,3.877l-17.3,15.136a6.315,6.315,0,0,0-2.157,4.753V45.21H33.842V34.871a6.32,6.32,0,0,0-2.157-4.754ZM33.842,47.736h5.053v7.579H33.842ZM26.263,74.894V64.157H36.368V76.789H25.82A4.376,4.376,0,0,0,26.263,74.894ZM38.894,64.157h2.526V76.789H38.894Zm5.053,0H54.052V74.894a4.376,4.376,0,0,0,.443,1.895H43.947Zm10.479-2.526H25.889A8.843,8.843,0,0,0,23.6,57.841H56.711A8.852,8.852,0,0,0,54.426,61.631ZM11.105,28.789a5.053,5.053,0,1,1-5.053,5.053A5.058,5.058,0,0,1,11.105,28.789ZM3.526,47.868a6.447,6.447,0,0,1,12.74-1.4l.965,4.343A2.512,2.512,0,0,0,19.7,52.789H25a1.263,1.263,0,1,1,0,2.526H15.6a1.265,1.265,0,0,1-1.227-.956L12.33,46.168l-2.45.611,2.048,8.193c.03.12.077.23.117.344H3.526Zm.536,9.974H17.421a6.323,6.323,0,0,1,6.316,6.316V74.894a1.895,1.895,0,0,1-3.789,0V65.42a3.794,3.794,0,0,0-3.789-3.789H9.842A6.319,6.319,0,0,1,4.062,57.841ZM17.421,69.21v5.684a4.376,4.376,0,0,0,.443,1.895H13.631V69.21ZM3.526,64.157H16.158a1.264,1.264,0,0,1,1.263,1.263v1.263H3.526ZM8.579,69.21h2.526v7.579H8.579Zm54.315,0h3.789v7.579H62.451a4.376,4.376,0,0,0,.443-1.895Zm8.842,7.579H69.21V69.21h2.526Zm5.053-12.631v2.526H62.894V65.42a1.264,1.264,0,0,1,1.263-1.263H76.789ZM64.157,61.631a3.794,3.794,0,0,0-3.789,3.789v9.474a1.895,1.895,0,0,1-3.789,0V64.157a6.323,6.323,0,0,1,6.316-6.316H76.253a6.319,6.319,0,0,1-5.78,3.789ZM69.21,28.789a5.053,5.053,0,1,1-5.053,5.053A5.058,5.058,0,0,1,69.21,28.789ZM54.052,54.052a1.264,1.264,0,0,1,1.263-1.263h5.3a2.513,2.513,0,0,0,2.466-1.978l.965-4.343a6.447,6.447,0,0,1,12.74,1.4v7.447H68.27c.04-.114.087-.225.117-.344l2.048-8.191-2.449-.611-2.048,8.19a1.266,1.266,0,0,1-1.228.956h-9.4A1.264,1.264,0,0,1,54.052,54.052ZM41.421,55.315V47.736h5.053v7.579Z" transform="translate(0)"/>
    <path id="Trazado_167065" data-name="Trazado 167065" d="M55,13h5.053v2.526H55Z" transform="translate(14.21 3.158)"/>
    <path id="Trazado_167066" data-name="Trazado 167066" d="M57,9h2.526v2.526H57Z" transform="translate(14.736 2.105)"/>
    <path id="Trazado_167067" data-name="Trazado 167067" d="M57,5h2.526V7.526H57Z" transform="translate(14.736 1.053)"/>
  </g>
</svg>
