<svg xmlns="http://www.w3.org/2000/svg" width="467" height="1372" viewBox="0 0 467 1372">
  <g id="Grupo_157558" data-name="Grupo 157558" transform="translate(8699 8151)">
    <path id="Trazado_600345" data-name="Trazado 600345" d="M0,0H467V1372H0Z" transform="translate(-8699 -8151)" fill="#f3f9ff"/>
    <path id="Trazado_166881" data-name="Trazado 166881" d="M0,0,108.51,25.078l25.078,108.51L25.078,108.51Z" transform="translate(-8655.999 -8017.539) rotate(-45)" fill="#ffc8bf"/>
    <path id="Trazado_600346" data-name="Trazado 600346" d="M6.193,10.693a2.951,2.951,0,0,1,.109.461,3.386,3.386,0,0,1,.048.564,1.755,1.755,0,0,1-.174.79,3.266,3.266,0,0,1-.434.66,6.578,6.578,0,0,1-.567.591q-.308.284-.567.574a3.278,3.278,0,0,0-.434.608,1.433,1.433,0,0,0-.174.7,1.282,1.282,0,0,0,.126.581,1.227,1.227,0,0,0,.345.424,1.514,1.514,0,0,0,.506.256,2.122,2.122,0,0,0,.608.085,2.651,2.651,0,0,0,2-.909v1.2a4.023,4.023,0,0,1-2.167.656,3.4,3.4,0,0,1-.978-.137,2.367,2.367,0,0,1-.8-.407,1.966,1.966,0,0,1-.543-.673,2.068,2.068,0,0,1-.2-.937,2.184,2.184,0,0,1,.178-.9,3.257,3.257,0,0,1,.448-.728,5.774,5.774,0,0,1,.584-.619q.314-.287.584-.571a3.134,3.134,0,0,0,.448-.591,1.329,1.329,0,0,0,.178-.677,2.025,2.025,0,0,0-.075-.571,4.077,4.077,0,0,0-.15-.434ZM5.578,7.85a.756.756,0,0,1,.533.219.7.7,0,0,1,.226.533.715.715,0,0,1-.226.533.743.743,0,0,1-1.066,0A.715.715,0,0,1,4.819,8.6a.7.7,0,0,1,.226-.533A.756.756,0,0,1,5.578,7.85Zm9.1,7.15h-5.2V5.2h4.977V6.236H10.63V9.5h3.541v1.032H10.63v3.432h4.047Zm2.857,0H16.413V4.637h1.121Zm9.755-5.865a1.371,1.371,0,0,0-.848-.226,1.431,1.431,0,0,0-1.2.677,3.129,3.129,0,0,0-.482,1.846V15H23.639V8H24.76V9.442h.027a2.444,2.444,0,0,1,.731-1.152,1.668,1.668,0,0,1,1.1-.414,1.83,1.83,0,0,1,.67.1Zm6.843,2.646H29.189a2.618,2.618,0,0,0,.629,1.8,2.168,2.168,0,0,0,1.654.636,3.439,3.439,0,0,0,2.174-.779v1.053a4.063,4.063,0,0,1-2.44.67,2.959,2.959,0,0,1-2.331-.954,3.9,3.9,0,0,1-.848-2.683,3.828,3.828,0,0,1,.926-2.663,2.97,2.97,0,0,1,2.3-1.029,2.632,2.632,0,0,1,2.126.889,3.705,3.705,0,0,1,.752,2.468Zm-1.148-.95a2.281,2.281,0,0,0-.468-1.511,1.6,1.6,0,0,0-1.282-.54,1.811,1.811,0,0,0-1.347.567A2.575,2.575,0,0,0,29.2,10.83ZM41.8,18.22H40.681V13.8h-.027a2.508,2.508,0,0,1-2.393,1.367,2.634,2.634,0,0,1-2.116-.94,3.834,3.834,0,0,1-.8-2.56,4.192,4.192,0,0,1,.875-2.786,2.912,2.912,0,0,1,2.352-1.042,2.207,2.207,0,0,1,2.078,1.135h.027V8H41.8Zm-1.121-6.371V10.83a2.037,2.037,0,0,0-.564-1.456,1.888,1.888,0,0,0-1.432-.595,1.925,1.925,0,0,0-1.6.749,3.341,3.341,0,0,0-.588,2.109,2.894,2.894,0,0,0,.567,1.9,1.811,1.811,0,0,0,1.463.687,1.972,1.972,0,0,0,1.569-.673A2.5,2.5,0,0,0,40.681,11.849ZM49.731,15H48.61V13.893h-.027a2.3,2.3,0,0,1-2.16,1.271q-2.5,0-2.5-2.98V8h1.114v4.006q0,2.215,1.7,2.215a1.715,1.715,0,0,0,1.35-.6,2.315,2.315,0,0,0,.53-1.583V8h1.121Zm7.889-3.22H52.678a2.618,2.618,0,0,0,.629,1.8,2.168,2.168,0,0,0,1.654.636,3.439,3.439,0,0,0,2.174-.779v1.053a4.063,4.063,0,0,1-2.44.67,2.959,2.959,0,0,1-2.331-.954,3.9,3.9,0,0,1-.848-2.683,3.828,3.828,0,0,1,.926-2.663,2.97,2.97,0,0,1,2.3-1.029,2.632,2.632,0,0,1,2.126.889,3.705,3.705,0,0,1,.752,2.468Zm-1.148-.95A2.281,2.281,0,0,0,56,9.319a1.6,1.6,0,0,0-1.282-.54,1.811,1.811,0,0,0-1.347.567,2.575,2.575,0,0,0-.684,1.483Zm6.494-1.7a1.371,1.371,0,0,0-.848-.226,1.431,1.431,0,0,0-1.2.677,3.129,3.129,0,0,0-.482,1.846V15H59.315V8h1.121V9.442h.027A2.444,2.444,0,0,1,61.2,8.291a1.668,1.668,0,0,1,1.1-.414,1.83,1.83,0,0,1,.67.1Zm1.791-2.912a.71.71,0,0,1-.513-.205.692.692,0,0,1-.212-.52.718.718,0,0,1,.725-.731.724.724,0,0,1,.523.208.73.73,0,0,1,0,1.036A.718.718,0,0,1,64.757,6.223ZM65.3,15H64.183V8H65.3Zm12.209,0H76.392V10.98A3.032,3.032,0,0,0,76.033,9.3a1.361,1.361,0,0,0-1.207-.52,1.494,1.494,0,0,0-1.22.656,2.511,2.511,0,0,0-.5,1.572V15H71.982V10.844q0-2.064-1.593-2.064a1.475,1.475,0,0,0-1.217.619,2.557,2.557,0,0,0-.479,1.61V15H67.573V8h1.121V9.107h.027A2.378,2.378,0,0,1,70.9,7.836a2.022,2.022,0,0,1,1.982,1.449A2.5,2.5,0,0,1,75.2,7.836q2.311,0,2.311,2.851Zm2.693-8.777a.71.71,0,0,1-.513-.205.692.692,0,0,1-.212-.52.718.718,0,0,1,.725-.731.724.724,0,0,1,.523.208.73.73,0,0,1,0,1.036A.718.718,0,0,1,80.206,6.223ZM80.753,15H79.632V8h1.121Zm7.9-3.22H83.706a2.618,2.618,0,0,0,.629,1.8,2.168,2.168,0,0,0,1.654.636,3.439,3.439,0,0,0,2.174-.779v1.053a4.063,4.063,0,0,1-2.44.67,2.959,2.959,0,0,1-2.331-.954,3.9,3.9,0,0,1-.848-2.683,3.828,3.828,0,0,1,.926-2.663,2.97,2.97,0,0,1,2.3-1.029,2.632,2.632,0,0,1,2.126.889,3.705,3.705,0,0,1,.752,2.468ZM87.5,10.83a2.281,2.281,0,0,0-.468-1.511,1.6,1.6,0,0,0-1.282-.54,1.811,1.811,0,0,0-1.347.567,2.575,2.575,0,0,0-.684,1.483ZM96.154,15H95.033V11.008q0-2.229-1.627-2.229a1.765,1.765,0,0,0-1.391.632,2.344,2.344,0,0,0-.55,1.6V15H90.344V8h1.121V9.162h.027a2.526,2.526,0,0,1,2.3-1.326,2.142,2.142,0,0,1,1.757.742,3.3,3.3,0,0,1,.608,2.143Zm5.359-.068a2.161,2.161,0,0,1-1.046.219q-1.839,0-1.839-2.051V8.957h-1.2V8h1.2V6.291l1.121-.362V8h1.764v.957H99.75V12.9a1.635,1.635,0,0,0,.239,1,.955.955,0,0,0,.793.3,1.179,1.179,0,0,0,.731-.232Zm4.423.232a3.247,3.247,0,0,1-2.478-.981,3.633,3.633,0,0,1-.926-2.6,3.785,3.785,0,0,1,.964-2.755,3.465,3.465,0,0,1,2.6-.991,3.14,3.14,0,0,1,2.444.964,3.822,3.822,0,0,1,.878,2.673,3.761,3.761,0,0,1-.947,2.683A3.317,3.317,0,0,1,105.937,15.164Zm.082-6.385a2.132,2.132,0,0,0-1.709.735,3.018,3.018,0,0,0-.629,2.027,2.854,2.854,0,0,0,.636,1.962,2.161,2.161,0,0,0,1.7.718,2.049,2.049,0,0,0,1.671-.7,3.055,3.055,0,0,0,.584-2,3.108,3.108,0,0,0-.584-2.023A2.04,2.04,0,0,0,106.019,8.779ZM25.56,31.988h-.027V36.22H24.411V26h1.121v1.23h.027a2.651,2.651,0,0,1,2.42-1.395,2.563,2.563,0,0,1,2.112.94,3.893,3.893,0,0,1,.759,2.519A4.339,4.339,0,0,1,30,32.108a2.845,2.845,0,0,1-2.338,1.056A2.342,2.342,0,0,1,25.56,31.988Zm-.027-2.823v.978a2.081,2.081,0,0,0,.564,1.473,2.012,2.012,0,0,0,3.028-.174,3.575,3.575,0,0,0,.578-2.167,2.822,2.822,0,0,0-.54-1.832,1.787,1.787,0,0,0-1.463-.663,1.986,1.986,0,0,0-1.572.68A2.5,2.5,0,0,0,25.532,29.165ZM38.3,33H37.181V31.893h-.027a2.3,2.3,0,0,1-2.16,1.271q-2.5,0-2.5-2.98V26h1.114v4.006q0,2.215,1.7,2.215a1.715,1.715,0,0,0,1.35-.6,2.315,2.315,0,0,0,.53-1.583V26H38.3Zm7.889-3.22H41.248a2.618,2.618,0,0,0,.629,1.8,2.168,2.168,0,0,0,1.654.636,3.439,3.439,0,0,0,2.174-.779v1.053a4.063,4.063,0,0,1-2.44.67,2.959,2.959,0,0,1-2.331-.954,3.9,3.9,0,0,1-.848-2.683,3.828,3.828,0,0,1,.926-2.663,2.97,2.97,0,0,1,2.3-1.029,2.632,2.632,0,0,1,2.126.889,3.705,3.705,0,0,1,.752,2.468Zm-1.148-.95a2.281,2.281,0,0,0-.468-1.511,1.6,1.6,0,0,0-1.282-.54,1.811,1.811,0,0,0-1.347.567,2.575,2.575,0,0,0-.684,1.483ZM53.86,33H52.739V31.811h-.027a2.588,2.588,0,0,1-2.406,1.354,2.615,2.615,0,0,1-2.109-.94,3.856,3.856,0,0,1-.79-2.56,4.2,4.2,0,0,1,.875-2.782,2.886,2.886,0,0,1,2.331-1.046,2.244,2.244,0,0,1,2.1,1.135h.027V22.637H53.86Zm-1.121-3.165V28.8a2,2,0,0,0-.561-1.436,1.88,1.88,0,0,0-1.422-.588,1.936,1.936,0,0,0-1.613.752,3.3,3.3,0,0,0-.588,2.078,2.964,2.964,0,0,0,.564,1.911,1.843,1.843,0,0,0,1.514.7,1.915,1.915,0,0,0,1.521-.677A2.521,2.521,0,0,0,52.739,29.835Zm9.017-.055H56.813a2.618,2.618,0,0,0,.629,1.8,2.168,2.168,0,0,0,1.654.636,3.439,3.439,0,0,0,2.174-.779v1.053a4.063,4.063,0,0,1-2.44.67A2.959,2.959,0,0,1,56.5,32.21a3.9,3.9,0,0,1-.848-2.683,3.828,3.828,0,0,1,.926-2.663,2.97,2.97,0,0,1,2.3-1.029A2.632,2.632,0,0,1,61,26.725a3.705,3.705,0,0,1,.752,2.468Zm-1.148-.95a2.281,2.281,0,0,0-.468-1.511,1.6,1.6,0,0,0-1.282-.54,1.811,1.811,0,0,0-1.347.567,2.575,2.575,0,0,0-.684,1.483ZM77.226,33H76.1V28.98a3.032,3.032,0,0,0-.359-1.682,1.361,1.361,0,0,0-1.207-.52,1.494,1.494,0,0,0-1.22.656,2.511,2.511,0,0,0-.5,1.572V33H71.7V28.844q0-2.064-1.593-2.064a1.475,1.475,0,0,0-1.217.619,2.557,2.557,0,0,0-.479,1.61V33H67.286V26h1.121v1.107h.027a2.378,2.378,0,0,1,2.174-1.271,2.022,2.022,0,0,1,1.982,1.449,2.5,2.5,0,0,1,2.324-1.449q2.311,0,2.311,2.851Zm7.13,0H83.234V31.906h-.027a2.347,2.347,0,0,1-2.153,1.258,2.3,2.3,0,0,1-1.637-.554,1.918,1.918,0,0,1-.591-1.47q0-1.962,2.311-2.283l2.1-.294q0-1.784-1.442-1.784a3.446,3.446,0,0,0-2.283.861V26.492a4.338,4.338,0,0,1,2.379-.656q2.468,0,2.468,2.611Zm-1.121-3.541-1.688.232a2.741,2.741,0,0,0-1.176.386,1.114,1.114,0,0,0-.4.981,1.068,1.068,0,0,0,.366.837,1.413,1.413,0,0,0,.974.325,1.8,1.8,0,0,0,1.377-.584,2.088,2.088,0,0,0,.543-1.48ZM87.589,33H86.468V22.637h1.121Z" transform="translate(-8617.999 -8044)" fill="#12263f"/>
    <path id="Trazado_600347" data-name="Trazado 600347" d="M12.951,15H11.543L6.5,7.187a3.265,3.265,0,0,1-.314-.615H6.143A10.092,10.092,0,0,1,6.2,7.918V15H5.049V5.2h1.49l4.908,7.69q.308.479.4.656h.027A10.371,10.371,0,0,1,11.8,12.1V5.2h1.148ZM8.959,33.164a3.247,3.247,0,0,1-2.478-.981,3.633,3.633,0,0,1-.926-2.6,3.785,3.785,0,0,1,.964-2.755,3.465,3.465,0,0,1,2.6-.991,3.14,3.14,0,0,1,2.444.964,3.822,3.822,0,0,1,.878,2.673,3.761,3.761,0,0,1-.947,2.683A3.318,3.318,0,0,1,8.959,33.164Zm.082-6.385a2.132,2.132,0,0,0-1.709.735A3.018,3.018,0,0,0,6.7,29.541,2.854,2.854,0,0,0,7.339,31.5a2.161,2.161,0,0,0,1.7.718,2.049,2.049,0,0,0,1.671-.7,3.055,3.055,0,0,0,.584-2,3.108,3.108,0,0,0-.584-2.023A2.04,2.04,0,0,0,9.041,26.779Z" transform="translate(-8585.136 -7955.367)" fill="#12263f"/>
    <path id="Trazado_600358" data-name="Trazado 600358" d="M4.413,14.6V13.25a2.629,2.629,0,0,0,.557.369,4.514,4.514,0,0,0,.684.277,5.442,5.442,0,0,0,.721.174,4.021,4.021,0,0,0,.67.062,2.624,2.624,0,0,0,1.583-.393,1.474,1.474,0,0,0,.349-1.822,1.964,1.964,0,0,0-.482-.537,4.782,4.782,0,0,0-.728-.465q-.42-.222-.906-.468-.513-.26-.957-.526a4.147,4.147,0,0,1-.772-.588A2.452,2.452,0,0,1,4.615,8.6a2.253,2.253,0,0,1-.188-.954,2.242,2.242,0,0,1,.294-1.166,2.521,2.521,0,0,1,.772-.817,3.5,3.5,0,0,1,1.09-.479,4.992,4.992,0,0,1,1.248-.157,4.781,4.781,0,0,1,2.112.349V6.674a3.829,3.829,0,0,0-2.229-.6,3.665,3.665,0,0,0-.752.079,2.124,2.124,0,0,0-.67.256,1.484,1.484,0,0,0-.479.458,1.216,1.216,0,0,0-.185.684,1.407,1.407,0,0,0,.14.649,1.592,1.592,0,0,0,.414.5,4.119,4.119,0,0,0,.667.438q.393.212.906.465t1,.547a4.562,4.562,0,0,1,.827.636,2.825,2.825,0,0,1,.564.772,2.171,2.171,0,0,1,.208.971,2.462,2.462,0,0,1-.284,1.227,2.328,2.328,0,0,1-.766.817,3.344,3.344,0,0,1-1.111.455,6.084,6.084,0,0,1-1.326.14,5.4,5.4,0,0,1-.574-.038q-.342-.038-.7-.109a5.69,5.69,0,0,1-.673-.178A2.1,2.1,0,0,1,4.413,14.6Zm8.319-8.381a.71.71,0,0,1-.513-.205.692.692,0,0,1-.212-.52.718.718,0,0,1,.725-.731.724.724,0,0,1,.523.208.73.73,0,0,1,0,1.036A.718.718,0,0,1,12.732,6.223ZM13.279,15H12.158V8h1.121Z" transform="translate(-8458.136 -8037.367)" fill="#12263f"/>
    <path id="Trazado_600359" data-name="Trazado 600359" d="M12.951,15H11.543L6.5,7.187a3.265,3.265,0,0,1-.314-.615H6.143A10.092,10.092,0,0,1,6.2,7.918V15H5.049V5.2h1.49l4.908,7.69q.308.479.4.656h.027A10.371,10.371,0,0,1,11.8,12.1V5.2h1.148ZM8.959,33.164a3.247,3.247,0,0,1-2.478-.981,3.633,3.633,0,0,1-.926-2.6,3.785,3.785,0,0,1,.964-2.755,3.465,3.465,0,0,1,2.6-.991,3.14,3.14,0,0,1,2.444.964,3.822,3.822,0,0,1,.878,2.673,3.761,3.761,0,0,1-.947,2.683A3.318,3.318,0,0,1,8.959,33.164Zm.082-6.385a2.132,2.132,0,0,0-1.709.735A3.018,3.018,0,0,0,6.7,29.541,2.854,2.854,0,0,0,7.339,31.5a2.161,2.161,0,0,0,1.7.718,2.049,2.049,0,0,0,1.671-.7,3.055,3.055,0,0,0,.584-2,3.108,3.108,0,0,0-.584-2.023A2.04,2.04,0,0,0,9.041,26.779Z" transform="translate(-8446.136 -7889.539)" fill="#12263f"/>
    <path id="Trazado_600360" data-name="Trazado 600360" d="M12.951,15H11.543L6.5,7.187a3.265,3.265,0,0,1-.314-.615H6.143A10.092,10.092,0,0,1,6.2,7.918V15H5.049V5.2h1.49l4.908,7.69q.308.479.4.656h.027A10.371,10.371,0,0,1,11.8,12.1V5.2h1.148ZM8.959,33.164a3.247,3.247,0,0,1-2.478-.981,3.633,3.633,0,0,1-.926-2.6,3.785,3.785,0,0,1,.964-2.755,3.465,3.465,0,0,1,2.6-.991,3.14,3.14,0,0,1,2.444.964,3.822,3.822,0,0,1,.878,2.673,3.761,3.761,0,0,1-.947,2.683A3.318,3.318,0,0,1,8.959,33.164Zm.082-6.385a2.132,2.132,0,0,0-1.709.735A3.018,3.018,0,0,0,6.7,29.541,2.854,2.854,0,0,0,7.339,31.5a2.161,2.161,0,0,0,1.7.718,2.049,2.049,0,0,0,1.671-.7,3.055,3.055,0,0,0,.584-2,3.108,3.108,0,0,0-.584-2.023A2.04,2.04,0,0,0,9.041,26.779Z" transform="translate(-8446.136 -7744.539)" fill="#12263f"/>
    <path id="Trazado_600361" data-name="Trazado 600361" d="M4.413,14.6V13.25a2.629,2.629,0,0,0,.557.369,4.514,4.514,0,0,0,.684.277,5.442,5.442,0,0,0,.721.174,4.021,4.021,0,0,0,.67.062,2.624,2.624,0,0,0,1.583-.393,1.474,1.474,0,0,0,.349-1.822,1.964,1.964,0,0,0-.482-.537,4.782,4.782,0,0,0-.728-.465q-.42-.222-.906-.468-.513-.26-.957-.526a4.147,4.147,0,0,1-.772-.588A2.452,2.452,0,0,1,4.615,8.6a2.253,2.253,0,0,1-.188-.954,2.242,2.242,0,0,1,.294-1.166,2.521,2.521,0,0,1,.772-.817,3.5,3.5,0,0,1,1.09-.479,4.992,4.992,0,0,1,1.248-.157,4.781,4.781,0,0,1,2.112.349V6.674a3.829,3.829,0,0,0-2.229-.6,3.665,3.665,0,0,0-.752.079,2.124,2.124,0,0,0-.67.256,1.484,1.484,0,0,0-.479.458,1.216,1.216,0,0,0-.185.684,1.407,1.407,0,0,0,.14.649,1.592,1.592,0,0,0,.414.5,4.119,4.119,0,0,0,.667.438q.393.212.906.465t1,.547a4.562,4.562,0,0,1,.827.636,2.825,2.825,0,0,1,.564.772,2.171,2.171,0,0,1,.208.971,2.462,2.462,0,0,1-.284,1.227,2.328,2.328,0,0,1-.766.817,3.344,3.344,0,0,1-1.111.455,6.084,6.084,0,0,1-1.326.14,5.4,5.4,0,0,1-.574-.038q-.342-.038-.7-.109a5.69,5.69,0,0,1-.673-.178A2.1,2.1,0,0,1,4.413,14.6Zm8.319-8.381a.71.71,0,0,1-.513-.205.692.692,0,0,1-.212-.52.718.718,0,0,1,.725-.731.724.724,0,0,1,.523.208.73.73,0,0,1,0,1.036A.718.718,0,0,1,12.732,6.223ZM13.279,15H12.158V8h1.121Z" transform="translate(-8446.136 -7596.539)" fill="#12263f"/>
    <path id="Trazado_600362" data-name="Trazado 600362" d="M12.951,15H11.543L6.5,7.187a3.265,3.265,0,0,1-.314-.615H6.143A10.092,10.092,0,0,1,6.2,7.918V15H5.049V5.2h1.49l4.908,7.69q.308.479.4.656h.027A10.371,10.371,0,0,1,11.8,12.1V5.2h1.148ZM8.959,33.164a3.247,3.247,0,0,1-2.478-.981,3.633,3.633,0,0,1-.926-2.6,3.785,3.785,0,0,1,.964-2.755,3.465,3.465,0,0,1,2.6-.991,3.14,3.14,0,0,1,2.444.964,3.822,3.822,0,0,1,.878,2.673,3.761,3.761,0,0,1-.947,2.683A3.318,3.318,0,0,1,8.959,33.164Zm.082-6.385a2.132,2.132,0,0,0-1.709.735A3.018,3.018,0,0,0,6.7,29.541,2.854,2.854,0,0,0,7.339,31.5a2.161,2.161,0,0,0,1.7.718,2.049,2.049,0,0,0,1.671-.7,3.055,3.055,0,0,0,.584-2,3.108,3.108,0,0,0-.584-2.023A2.04,2.04,0,0,0,9.041,26.779Z" transform="translate(-8446.136 -7448.539)" fill="#12263f"/>
    <path id="Trazado_600363" data-name="Trazado 600363" d="M12.951,15H11.543L6.5,7.187a3.265,3.265,0,0,1-.314-.615H6.143A10.092,10.092,0,0,1,6.2,7.918V15H5.049V5.2h1.49l4.908,7.69q.308.479.4.656h.027A10.371,10.371,0,0,1,11.8,12.1V5.2h1.148ZM8.959,33.164a3.247,3.247,0,0,1-2.478-.981,3.633,3.633,0,0,1-.926-2.6,3.785,3.785,0,0,1,.964-2.755,3.465,3.465,0,0,1,2.6-.991,3.14,3.14,0,0,1,2.444.964,3.822,3.822,0,0,1,.878,2.673,3.761,3.761,0,0,1-.947,2.683A3.318,3.318,0,0,1,8.959,33.164Zm.082-6.385a2.132,2.132,0,0,0-1.709.735A3.018,3.018,0,0,0,6.7,29.541,2.854,2.854,0,0,0,7.339,31.5a2.161,2.161,0,0,0,1.7.718,2.049,2.049,0,0,0,1.671-.7,3.055,3.055,0,0,0,.584-2,3.108,3.108,0,0,0-.584-2.023A2.04,2.04,0,0,0,9.041,26.779Z" transform="translate(-8446.136 -7300.539)" fill="#12263f"/>
    <path id="Trazado_600364" data-name="Trazado 600364" d="M12.951,15H11.543L6.5,7.187a3.265,3.265,0,0,1-.314-.615H6.143A10.092,10.092,0,0,1,6.2,7.918V15H5.049V5.2h1.49l4.908,7.69q.308.479.4.656h.027A10.371,10.371,0,0,1,11.8,12.1V5.2h1.148ZM8.959,33.164a3.247,3.247,0,0,1-2.478-.981,3.633,3.633,0,0,1-.926-2.6,3.785,3.785,0,0,1,.964-2.755,3.465,3.465,0,0,1,2.6-.991,3.14,3.14,0,0,1,2.444.964,3.822,3.822,0,0,1,.878,2.673,3.761,3.761,0,0,1-.947,2.683A3.318,3.318,0,0,1,8.959,33.164Zm.082-6.385a2.132,2.132,0,0,0-1.709.735A3.018,3.018,0,0,0,6.7,29.541,2.854,2.854,0,0,0,7.339,31.5a2.161,2.161,0,0,0,1.7.718,2.049,2.049,0,0,0,1.671-.7,3.055,3.055,0,0,0,.584-2,3.108,3.108,0,0,0-.584-2.023A2.04,2.04,0,0,0,9.041,26.779Z" transform="translate(-8446.136 -7153.461)" fill="#12263f"/>
    <path id="Trazado_600365" data-name="Trazado 600365" d="M12.951,15H11.543L6.5,7.187a3.265,3.265,0,0,1-.314-.615H6.143A10.092,10.092,0,0,1,6.2,7.918V15H5.049V5.2h1.49l4.908,7.69q.308.479.4.656h.027A10.371,10.371,0,0,1,11.8,12.1V5.2h1.148ZM8.959,33.164a3.247,3.247,0,0,1-2.478-.981,3.633,3.633,0,0,1-.926-2.6,3.785,3.785,0,0,1,.964-2.755,3.465,3.465,0,0,1,2.6-.991,3.14,3.14,0,0,1,2.444.964,3.822,3.822,0,0,1,.878,2.673,3.761,3.761,0,0,1-.947,2.683A3.318,3.318,0,0,1,8.959,33.164Zm.082-6.385a2.132,2.132,0,0,0-1.709.735A3.018,3.018,0,0,0,6.7,29.541,2.854,2.854,0,0,0,7.339,31.5a2.161,2.161,0,0,0,1.7.718,2.049,2.049,0,0,0,1.671-.7,3.055,3.055,0,0,0,.584-2,3.108,3.108,0,0,0-.584-2.023A2.04,2.04,0,0,0,9.041,26.779Z" transform="translate(-8446.136 -7005.461)" fill="#12263f"/>
    <path id="Trazado_600348" data-name="Trazado 600348" d="M12.951,15H11.543L6.5,7.187a3.265,3.265,0,0,1-.314-.615H6.143A10.092,10.092,0,0,1,6.2,7.918V15H5.049V5.2h1.49l4.908,7.69q.308.479.4.656h.027A10.371,10.371,0,0,1,11.8,12.1V5.2h1.148ZM8.959,33.164a3.247,3.247,0,0,1-2.478-.981,3.633,3.633,0,0,1-.926-2.6,3.785,3.785,0,0,1,.964-2.755,3.465,3.465,0,0,1,2.6-.991,3.14,3.14,0,0,1,2.444.964,3.822,3.822,0,0,1,.878,2.673,3.761,3.761,0,0,1-.947,2.683A3.318,3.318,0,0,1,8.959,33.164Zm.082-6.385a2.132,2.132,0,0,0-1.709.735A3.018,3.018,0,0,0,6.7,29.541,2.854,2.854,0,0,0,7.339,31.5a2.161,2.161,0,0,0,1.7.718,2.049,2.049,0,0,0,1.671-.7,3.055,3.055,0,0,0,.584-2,3.108,3.108,0,0,0-.584-2.023A2.04,2.04,0,0,0,9.041,26.779Z" transform="translate(-8585.136 -7511.367)" fill="#12263f"/>
    <path id="Trazado_600349" data-name="Trazado 600349" d="M4.413,14.6V13.25a2.629,2.629,0,0,0,.557.369,4.514,4.514,0,0,0,.684.277,5.442,5.442,0,0,0,.721.174,4.021,4.021,0,0,0,.67.062,2.624,2.624,0,0,0,1.583-.393,1.474,1.474,0,0,0,.349-1.822,1.964,1.964,0,0,0-.482-.537,4.782,4.782,0,0,0-.728-.465q-.42-.222-.906-.468-.513-.26-.957-.526a4.147,4.147,0,0,1-.772-.588A2.452,2.452,0,0,1,4.615,8.6a2.253,2.253,0,0,1-.188-.954,2.242,2.242,0,0,1,.294-1.166,2.521,2.521,0,0,1,.772-.817,3.5,3.5,0,0,1,1.09-.479,4.992,4.992,0,0,1,1.248-.157,4.781,4.781,0,0,1,2.112.349V6.674a3.829,3.829,0,0,0-2.229-.6,3.665,3.665,0,0,0-.752.079,2.124,2.124,0,0,0-.67.256,1.484,1.484,0,0,0-.479.458,1.216,1.216,0,0,0-.185.684,1.407,1.407,0,0,0,.14.649,1.592,1.592,0,0,0,.414.5,4.119,4.119,0,0,0,.667.438q.393.212.906.465t1,.547a4.562,4.562,0,0,1,.827.636,2.825,2.825,0,0,1,.564.772,2.171,2.171,0,0,1,.208.971,2.462,2.462,0,0,1-.284,1.227,2.328,2.328,0,0,1-.766.817,3.344,3.344,0,0,1-1.111.455,6.084,6.084,0,0,1-1.326.14,5.4,5.4,0,0,1-.574-.038q-.342-.038-.7-.109a5.69,5.69,0,0,1-.673-.178A2.1,2.1,0,0,1,4.413,14.6Zm8.319-8.381a.71.71,0,0,1-.513-.205.692.692,0,0,1-.212-.52.718.718,0,0,1,.725-.731.724.724,0,0,1,.523.208.73.73,0,0,1,0,1.036A.718.718,0,0,1,12.732,6.223ZM13.279,15H12.158V8h1.121Z" transform="translate(-8585.136 -7807.367)" fill="#12263f"/>
    <path id="Trazado_600350" data-name="Trazado 600350" d="M4.413,14.6V13.25a2.629,2.629,0,0,0,.557.369,4.514,4.514,0,0,0,.684.277,5.442,5.442,0,0,0,.721.174,4.021,4.021,0,0,0,.67.062,2.624,2.624,0,0,0,1.583-.393,1.474,1.474,0,0,0,.349-1.822,1.964,1.964,0,0,0-.482-.537,4.782,4.782,0,0,0-.728-.465q-.42-.222-.906-.468-.513-.26-.957-.526a4.147,4.147,0,0,1-.772-.588A2.452,2.452,0,0,1,4.615,8.6a2.253,2.253,0,0,1-.188-.954,2.242,2.242,0,0,1,.294-1.166,2.521,2.521,0,0,1,.772-.817,3.5,3.5,0,0,1,1.09-.479,4.992,4.992,0,0,1,1.248-.157,4.781,4.781,0,0,1,2.112.349V6.674a3.829,3.829,0,0,0-2.229-.6,3.665,3.665,0,0,0-.752.079,2.124,2.124,0,0,0-.67.256,1.484,1.484,0,0,0-.479.458,1.216,1.216,0,0,0-.185.684,1.407,1.407,0,0,0,.14.649,1.592,1.592,0,0,0,.414.5,4.119,4.119,0,0,0,.667.438q.393.212.906.465t1,.547a4.562,4.562,0,0,1,.827.636,2.825,2.825,0,0,1,.564.772,2.171,2.171,0,0,1,.208.971,2.462,2.462,0,0,1-.284,1.227,2.328,2.328,0,0,1-.766.817,3.344,3.344,0,0,1-1.111.455,6.084,6.084,0,0,1-1.326.14,5.4,5.4,0,0,1-.574-.038q-.342-.038-.7-.109a5.69,5.69,0,0,1-.673-.178A2.1,2.1,0,0,1,4.413,14.6Zm8.319-8.381a.71.71,0,0,1-.513-.205.692.692,0,0,1-.212-.52.718.718,0,0,1,.725-.731.724.724,0,0,1,.523.208.73.73,0,0,1,0,1.036A.718.718,0,0,1,12.732,6.223ZM13.279,15H12.158V8h1.121Z" transform="translate(-8585.136 -7659.367)" fill="#12263f"/>
    <path id="Trazado_600351" data-name="Trazado 600351" d="M4.413,14.6V13.25a2.629,2.629,0,0,0,.557.369,4.514,4.514,0,0,0,.684.277,5.442,5.442,0,0,0,.721.174,4.021,4.021,0,0,0,.67.062,2.624,2.624,0,0,0,1.583-.393,1.474,1.474,0,0,0,.349-1.822,1.964,1.964,0,0,0-.482-.537,4.782,4.782,0,0,0-.728-.465q-.42-.222-.906-.468-.513-.26-.957-.526a4.147,4.147,0,0,1-.772-.588A2.452,2.452,0,0,1,4.615,8.6a2.253,2.253,0,0,1-.188-.954,2.242,2.242,0,0,1,.294-1.166,2.521,2.521,0,0,1,.772-.817,3.5,3.5,0,0,1,1.09-.479,4.992,4.992,0,0,1,1.248-.157,4.781,4.781,0,0,1,2.112.349V6.674a3.829,3.829,0,0,0-2.229-.6,3.665,3.665,0,0,0-.752.079,2.124,2.124,0,0,0-.67.256,1.484,1.484,0,0,0-.479.458,1.216,1.216,0,0,0-.185.684,1.407,1.407,0,0,0,.14.649,1.592,1.592,0,0,0,.414.5,4.119,4.119,0,0,0,.667.438q.393.212.906.465t1,.547a4.562,4.562,0,0,1,.827.636,2.825,2.825,0,0,1,.564.772,2.171,2.171,0,0,1,.208.971,2.462,2.462,0,0,1-.284,1.227,2.328,2.328,0,0,1-.766.817,3.344,3.344,0,0,1-1.111.455,6.084,6.084,0,0,1-1.326.14,5.4,5.4,0,0,1-.574-.038q-.342-.038-.7-.109a5.69,5.69,0,0,1-.673-.178A2.1,2.1,0,0,1,4.413,14.6Zm8.319-8.381a.71.71,0,0,1-.513-.205.692.692,0,0,1-.212-.52.718.718,0,0,1,.725-.731.724.724,0,0,1,.523.208.73.73,0,0,1,0,1.036A.718.718,0,0,1,12.732,6.223ZM13.279,15H12.158V8h1.121Z" transform="translate(-8585.136 -7363.367)" fill="#12263f"/>
    <path id="Trazado_600352" data-name="Trazado 600352" d="M4.413,14.6V13.25a2.629,2.629,0,0,0,.557.369,4.514,4.514,0,0,0,.684.277,5.442,5.442,0,0,0,.721.174,4.021,4.021,0,0,0,.67.062,2.624,2.624,0,0,0,1.583-.393,1.474,1.474,0,0,0,.349-1.822,1.964,1.964,0,0,0-.482-.537,4.782,4.782,0,0,0-.728-.465q-.42-.222-.906-.468-.513-.26-.957-.526a4.147,4.147,0,0,1-.772-.588A2.452,2.452,0,0,1,4.615,8.6a2.253,2.253,0,0,1-.188-.954,2.242,2.242,0,0,1,.294-1.166,2.521,2.521,0,0,1,.772-.817,3.5,3.5,0,0,1,1.09-.479,4.992,4.992,0,0,1,1.248-.157,4.781,4.781,0,0,1,2.112.349V6.674a3.829,3.829,0,0,0-2.229-.6,3.665,3.665,0,0,0-.752.079,2.124,2.124,0,0,0-.67.256,1.484,1.484,0,0,0-.479.458,1.216,1.216,0,0,0-.185.684,1.407,1.407,0,0,0,.14.649,1.592,1.592,0,0,0,.414.5,4.119,4.119,0,0,0,.667.438q.393.212.906.465t1,.547a4.562,4.562,0,0,1,.827.636,2.825,2.825,0,0,1,.564.772,2.171,2.171,0,0,1,.208.971,2.462,2.462,0,0,1-.284,1.227,2.328,2.328,0,0,1-.766.817,3.344,3.344,0,0,1-1.111.455,6.084,6.084,0,0,1-1.326.14,5.4,5.4,0,0,1-.574-.038q-.342-.038-.7-.109a5.69,5.69,0,0,1-.673-.178A2.1,2.1,0,0,1,4.413,14.6Zm8.319-8.381a.71.71,0,0,1-.513-.205.692.692,0,0,1-.212-.52.718.718,0,0,1,.725-.731.724.724,0,0,1,.523.208.73.73,0,0,1,0,1.036A.718.718,0,0,1,12.732,6.223ZM13.279,15H12.158V8h1.121Z" transform="translate(-8585.136 -7215.367)" fill="#12263f"/>
    <path id="Trazado_600366" data-name="Trazado 600366" d="M4.413,14.6V13.25a2.629,2.629,0,0,0,.557.369,4.514,4.514,0,0,0,.684.277,5.442,5.442,0,0,0,.721.174,4.021,4.021,0,0,0,.67.062,2.624,2.624,0,0,0,1.583-.393,1.474,1.474,0,0,0,.349-1.822,1.964,1.964,0,0,0-.482-.537,4.782,4.782,0,0,0-.728-.465q-.42-.222-.906-.468-.513-.26-.957-.526a4.147,4.147,0,0,1-.772-.588A2.452,2.452,0,0,1,4.615,8.6a2.253,2.253,0,0,1-.188-.954,2.242,2.242,0,0,1,.294-1.166,2.521,2.521,0,0,1,.772-.817,3.5,3.5,0,0,1,1.09-.479,4.992,4.992,0,0,1,1.248-.157,4.781,4.781,0,0,1,2.112.349V6.674a3.829,3.829,0,0,0-2.229-.6,3.665,3.665,0,0,0-.752.079,2.124,2.124,0,0,0-.67.256,1.484,1.484,0,0,0-.479.458,1.216,1.216,0,0,0-.185.684,1.407,1.407,0,0,0,.14.649,1.592,1.592,0,0,0,.414.5,4.119,4.119,0,0,0,.667.438q.393.212.906.465t1,.547a4.562,4.562,0,0,1,.827.636,2.825,2.825,0,0,1,.564.772,2.171,2.171,0,0,1,.208.971,2.462,2.462,0,0,1-.284,1.227,2.328,2.328,0,0,1-.766.817,3.344,3.344,0,0,1-1.111.455,6.084,6.084,0,0,1-1.326.14,5.4,5.4,0,0,1-.574-.038q-.342-.038-.7-.109a5.69,5.69,0,0,1-.673-.178A2.1,2.1,0,0,1,4.413,14.6Zm8.319-8.381a.71.71,0,0,1-.513-.205.692.692,0,0,1-.212-.52.718.718,0,0,1,.725-.731.724.724,0,0,1,.523.208.73.73,0,0,1,0,1.036A.718.718,0,0,1,12.732,6.223ZM13.279,15H12.158V8h1.121Z" transform="translate(-8585.136 -7067.367)" fill="#12263f"/>
    <path id="Trazado_600370" data-name="Trazado 600370" d="M4.413,14.6V13.25a2.629,2.629,0,0,0,.557.369,4.514,4.514,0,0,0,.684.277,5.442,5.442,0,0,0,.721.174,4.021,4.021,0,0,0,.67.062,2.624,2.624,0,0,0,1.583-.393,1.474,1.474,0,0,0,.349-1.822,1.964,1.964,0,0,0-.482-.537,4.782,4.782,0,0,0-.728-.465q-.42-.222-.906-.468-.513-.26-.957-.526a4.147,4.147,0,0,1-.772-.588A2.452,2.452,0,0,1,4.615,8.6a2.253,2.253,0,0,1-.188-.954,2.242,2.242,0,0,1,.294-1.166,2.521,2.521,0,0,1,.772-.817,3.5,3.5,0,0,1,1.09-.479,4.992,4.992,0,0,1,1.248-.157,4.781,4.781,0,0,1,2.112.349V6.674a3.829,3.829,0,0,0-2.229-.6,3.665,3.665,0,0,0-.752.079,2.124,2.124,0,0,0-.67.256,1.484,1.484,0,0,0-.479.458,1.216,1.216,0,0,0-.185.684,1.407,1.407,0,0,0,.14.649,1.592,1.592,0,0,0,.414.5,4.119,4.119,0,0,0,.667.438q.393.212.906.465t1,.547a4.562,4.562,0,0,1,.827.636,2.825,2.825,0,0,1,.564.772,2.171,2.171,0,0,1,.208.971,2.462,2.462,0,0,1-.284,1.227,2.328,2.328,0,0,1-.766.817,3.344,3.344,0,0,1-1.111.455,6.084,6.084,0,0,1-1.326.14,5.4,5.4,0,0,1-.574-.038q-.342-.038-.7-.109a5.69,5.69,0,0,1-.673-.178A2.1,2.1,0,0,1,4.413,14.6Zm8.319-8.381a.71.71,0,0,1-.513-.205.692.692,0,0,1-.212-.52.718.718,0,0,1,.725-.731.724.724,0,0,1,.523.208.73.73,0,0,1,0,1.036A.718.718,0,0,1,12.732,6.223ZM13.279,15H12.158V8h1.121Z" transform="translate(-8431.654 -6877.077)" fill="#12263f"/>
    <g id="Grupo_110684" data-name="Grupo 110684" transform="translate(945.001 44)">
      <path id="Trazado_166886" data-name="Trazado 166886" d="M0,0,108.51,25.078l25.078,108.51L25.078,108.51Z" transform="translate(-9601.001 -7616.539) rotate(-45)" fill="#ffc8bf"/>
      <text id="_Infringe_alguna_restricción_del_dominio_del_sistema_" data-name="¿Infringe alguna 
restricción del 
dominio del 
sistema?" transform="translate(-9558.001 -7652)" fill="#12263f" font-size="14" font-family="SegoeUI, Segoe UI"><tspan x="2.193" y="15">¿Infringe alguna </tspan><tspan x="8.814" y="33">restricción del </tspan><tspan x="14.898" y="51">dominio del </tspan></text>
    </g>
    <g id="Grupo_110689" data-name="Grupo 110689" transform="translate(945.001 -66)">
      <path id="Trazado_166882" data-name="Trazado 166882" d="M0,0,108.51,25.078l25.078,108.51L25.078,108.51Z" transform="translate(-9601 -7803.539) rotate(-45)" fill="#ffc8bf"/>
      <text id="_Se_identifica_el_área_del_requisito_" data-name="¿Se identifica el área 
del requisito?" transform="translate(-9573 -7821)" fill="#12263f" font-size="14" font-family="SegoeUI, Segoe UI"><tspan x="2.969" y="15">¿Se identifica el área </tspan></text>
    </g>
    <g id="Grupo_110685" data-name="Grupo 110685" transform="translate(1339.137 -683)">
      <path id="Trazado_166885" data-name="Trazado 166885" d="M0,0,108.51,25.078l25.078,108.51L25.078,108.51Z" transform="translate(-9995.137 -6742.539) rotate(-45)" fill="#ffc8bf"/>
      <text id="_Puede_probarse_" data-name="¿Puede probarse?" transform="translate(-9956.137 -6751)" fill="#12263f" font-size="14" font-family="SegoeUI, Segoe UI"><tspan x="1.09" y="15">¿Puede probarse?</tspan></text>
    </g>
    <g id="Grupo_110687" data-name="Grupo 110687" transform="translate(1129.676 -525)">
      <path id="Trazado_166888" data-name="Trazado 166888" d="M0,0,108.51,25.078l25.078,108.51L25.078,108.51Z" transform="translate(-9785.676 -6604.577) rotate(-45)" fill="#ffc8bf"/>
      <text id="_La_información_está_estructurada_para_traducirse_a_nivel_técnico_para_su_desarrollo_" data-name="¿La información está estructurada para traducirse a nivel técnico para su desarrollo?" transform="translate(-9751.676 -6648.077)" fill="#12263f" font-size="14" font-family="SegoeUI, Segoe UI"><tspan x="12.123" y="15">¿La información </tspan><tspan x="7.875" y="33">está estructurada </tspan><tspan x="9.488" y="51">para traducirse a </tspan><tspan x="6.87" y="69">nivel técnico para </tspan></text>
    </g>
    <g id="Grupo_110683" data-name="Grupo 110683" transform="translate(734.137 -150.923)">
      <path id="Trazado_166883" data-name="Trazado 166883" d="M0,0,108.51,25.078l25.078,108.51L25.078,108.51Z" transform="translate(-9390.137 -7570.539) rotate(-45)" fill="#ffc8bf"/>
      <text id="_Identifica_si_otros_requisitos_están_relacionados_" data-name="¿Identifica si otros 
requisitos están 
relacionados?" transform="translate(-9355.137 -7597)" fill="#12263f" font-size="14" font-family="SegoeUI, Segoe UI"><tspan x="3.027" y="15">¿Identifica si otros </tspan><tspan x="10.574" y="33">requisitos están </tspan></text>
    </g>
    <g id="Grupo_110686" data-name="Grupo 110686" transform="translate(1234.137 -605)">
      <path id="Trazado_166884" data-name="Trazado 166884" d="M0,0,108.51,25.078l25.078,108.51L25.078,108.51Z" transform="translate(-9890.137 -6673.539) rotate(-45)" fill="#ffc8bf"/>
      <text id="_Tiene_criterios_de_validación_" data-name="¿Tiene criterios de 
validación?" transform="translate(-9854.137 -6691)" fill="#12263f" font-size="14" font-family="SegoeUI, Segoe UI"><tspan x="3.003" y="15">¿Tiene criterios de </tspan></text>
    </g>
    <g id="Grupo_110688" data-name="Grupo 110688" transform="translate(1014.404 -450)">
      <path id="Trazado_166887" data-name="Trazado 166887" d="M0,0,108.51,25.078l25.078,108.51L25.078,108.51Z" transform="translate(-9670.403 -6530) rotate(-45)" fill="#ffc8bf"/>
      <text id="_Cuenta_con_índice_e_identificación_" data-name="¿Cuenta con índice e identificación?" transform="translate(-9634.402 -6547.461)" fill="#12263f" font-size="14" font-family="SegoeUI, Segoe UI"><tspan x="0.512" y="15">¿Cuenta con índice </tspan></text>
    </g>
    <path id="Trazado_600371" data-name="Trazado 600371" d="M10,0H119a10,10,0,0,1,10,10V72a10,10,0,0,1-10,10H10A10,10,0,0,1,0,72V10A10,10,0,0,1,10,0Z" transform="translate(-8404.23 -6899)" fill="#ff6148"/>
    <path id="Trazado_600367" data-name="Trazado 600367" d="M10,0H118.256a10,10,0,0,1,10,10V72a10,10,0,0,1-10,10H10A10,10,0,0,1,0,72V10A10,10,0,0,1,10,0Z" transform="translate(-8403.486 -7910.539)" fill="#2efec7"/>
    <path id="Trazado_600372" data-name="Trazado 600372" d="M20.75,5.8,16.891,17H14.031L10.219,5.8h2.719l2.336,7.8a5.584,5.584,0,0,1,.227,1.117h.047a6.315,6.315,0,0,1,.242-1.148L18.109,5.8ZM31.117,17h-2.75l-.8-2.492H23.586L22.8,17H20.063L24.141,5.8h2.992Zm-4.125-4.43L25.789,8.8A4.907,4.907,0,0,1,25.6,7.8h-.062a4.273,4.273,0,0,1-.2.977l-1.219,3.8ZM39.188,17H32.516V5.8h2.523v9.156h4.148Zm4.031,0H40.7V5.8h2.523Zm2.547,0V5.8h3.969q5.969,0,5.969,5.461a5.522,5.522,0,0,1-1.629,4.18A6.007,6.007,0,0,1,49.734,17Zm2.523-9.148v7.1h1.25a3.378,3.378,0,0,0,2.574-.984,3.735,3.735,0,0,0,.934-2.68,3.388,3.388,0,0,0-.926-2.52,3.529,3.529,0,0,0-2.6-.918ZM67.172,17h-2.75l-.8-2.492H59.641L58.852,17H56.117L60.2,5.8h2.992Zm-4.125-4.43L61.844,8.8A4.907,4.907,0,0,1,61.656,7.8h-.062a4.273,4.273,0,0,1-.2.977l-1.219,3.8ZM77.969,17h-2.9l-1.742-2.883q-.2-.328-.375-.586a3.255,3.255,0,0,0-.363-.441,1.445,1.445,0,0,0-.383-.281.972.972,0,0,0-.434-.1h-.68V17H68.57V5.8h4q4.078,0,4.078,3.047a3.155,3.155,0,0,1-.18,1.082,3.006,3.006,0,0,1-.508.895,3.219,3.219,0,0,1-.793.688,4.089,4.089,0,0,1-1.035.453v.031a1.606,1.606,0,0,1,.484.254,3.469,3.469,0,0,1,.453.41,5.722,5.722,0,0,1,.418.5q.2.27.363.527ZM71.094,7.688V10.8h1.094a1.813,1.813,0,0,0,1.3-.469,1.564,1.564,0,0,0,.5-1.18q0-1.469-1.758-1.469ZM91.875,5.8l-3.648,7.219V17H85.7V13.063L82.148,5.8h2.883l1.8,4.18q.047.117.258.914h.031a4.07,4.07,0,0,1,.242-.883L89.2,5.8ZM27.488,37h-2.75l-.8-2.492H19.957L19.168,37H16.434l4.078-11.2H23.5Zm-4.125-4.43L22.16,28.8a4.907,4.907,0,0,1-.187-1.008H21.91a4.273,4.273,0,0,1-.2.977L20.5,32.57ZM36.676,36.6a7.388,7.388,0,0,1-3.2.594,5.4,5.4,0,0,1-4.055-1.516,5.54,5.54,0,0,1-1.477-4.039,5.919,5.919,0,0,1,1.66-4.359,5.807,5.807,0,0,1,4.309-1.672,8.058,8.058,0,0,1,2.766.414v2.43a4.9,4.9,0,0,0-2.562-.672,3.4,3.4,0,0,0-2.547.992,3.682,3.682,0,0,0-.969,2.688,3.611,3.611,0,0,0,.914,2.59,3.229,3.229,0,0,0,2.461.965,5.249,5.249,0,0,0,2.7-.719Zm8.672.4H38.629V25.8H45.09v2.055H41.152v2.492h3.664v2.047H41.152v2.563h4.2Zm4.32-3.859V37H47.145V25.8H51.1q4.234,0,4.234,3.57a3.426,3.426,0,0,1-1.215,2.73,4.813,4.813,0,0,1-3.246,1.043Zm0-5.406v3.492h.992q2.016,0,2.016-1.766,0-1.727-2.016-1.727Zm15.172.117h-3.2V37H59.113V27.852h-3.18V25.8H64.84ZM75.082,37h-2.75l-.8-2.492H67.551L66.762,37H64.027l4.078-11.2H71.1Zm-4.125-4.43-1.2-3.766a4.908,4.908,0,0,1-.187-1.008H69.5a4.273,4.273,0,0,1-.2.977l-1.219,3.8ZM85.879,37h-2.9l-1.742-2.883q-.2-.328-.375-.586a3.255,3.255,0,0,0-.363-.441,1.445,1.445,0,0,0-.383-.281.972.972,0,0,0-.434-.1H79V37H76.48V25.8h4q4.078,0,4.078,3.047a3.155,3.155,0,0,1-.18,1.082,3.006,3.006,0,0,1-.508.895,3.219,3.219,0,0,1-.793.688,4.089,4.089,0,0,1-1.035.453v.031a1.606,1.606,0,0,1,.484.254,3.469,3.469,0,0,1,.453.41,5.722,5.722,0,0,1,.418.5q.2.27.363.527ZM79,27.688V30.8H80.1a1.813,1.813,0,0,0,1.3-.469,1.564,1.564,0,0,0,.5-1.18q0-1.469-1.758-1.469ZM20.336,57h-2.9L15.7,54.117q-.2-.328-.375-.586a3.255,3.255,0,0,0-.363-.441,1.445,1.445,0,0,0-.383-.281.972.972,0,0,0-.434-.1h-.68V57H10.938V45.8h4q4.078,0,4.078,3.047a3.155,3.155,0,0,1-.18,1.082,3.006,3.006,0,0,1-.508.895,3.219,3.219,0,0,1-.793.688,4.09,4.09,0,0,1-1.035.453v.031a1.606,1.606,0,0,1,.484.254,3.469,3.469,0,0,1,.453.41,5.722,5.722,0,0,1,.418.5q.2.27.363.527Zm-6.875-9.312V50.8h1.094a1.813,1.813,0,0,0,1.3-.469,1.564,1.564,0,0,0,.5-1.18q0-1.469-1.758-1.469ZM28.1,57H21.383V45.8h6.461v2.055H23.906v2.492H27.57v2.047H23.906v2.563h4.2Zm6.531.2a5.222,5.222,0,0,1-3.922-1.562A5.654,5.654,0,0,1,29.2,51.547a6.043,6.043,0,0,1,1.539-4.3,5.313,5.313,0,0,1,4.078-1.641,5.072,5.072,0,0,1,3.875,1.57,5.763,5.763,0,0,1,1.484,4.141,5.938,5.938,0,0,1-1.539,4.258q-.055.055-.1.105a1.207,1.207,0,0,1-.1.1l2.836,2.727H37.734L36.25,57A6.284,6.284,0,0,1,34.633,57.2Zm.109-9.414a2.55,2.55,0,0,0-2.109,1,4.136,4.136,0,0,0-.781,2.633,4.077,4.077,0,0,0,.781,2.633,2.5,2.5,0,0,0,2.047.969,2.533,2.533,0,0,0,2.07-.937,4.068,4.068,0,0,0,.766-2.617,4.39,4.39,0,0,0-.742-2.711A2.407,2.407,0,0,0,34.742,47.781Zm16.422,4.367q0,5.047-4.7,5.047-4.563,0-4.562-4.93V45.8H44.43v6.5q0,2.719,2.125,2.719,2.086,0,2.086-2.625V45.8h2.523ZM56.125,57H53.6V45.8h2.523Zm2.031-.43v-2.5a4.8,4.8,0,0,0,1.477.855,4.746,4.746,0,0,0,1.609.285,3.569,3.569,0,0,0,.832-.086,1.949,1.949,0,0,0,.594-.238,1.039,1.039,0,0,0,.355-.359.9.9,0,0,0,.117-.449.971.971,0,0,0-.187-.586,2.018,2.018,0,0,0-.512-.477,5.347,5.347,0,0,0-.77-.422q-.445-.2-.961-.414a4.9,4.9,0,0,1-1.957-1.336,2.917,2.917,0,0,1-.645-1.906,3.036,3.036,0,0,1,.352-1.5,2.986,2.986,0,0,1,.957-1.035,4.291,4.291,0,0,1,1.4-.6,7.206,7.206,0,0,1,1.688-.191,10.15,10.15,0,0,1,1.551.105,6.1,6.1,0,0,1,1.246.324v2.336a3.768,3.768,0,0,0-.613-.344,4.859,4.859,0,0,0-.684-.246,5.214,5.214,0,0,0-.7-.145,4.949,4.949,0,0,0-.66-.047,3.443,3.443,0,0,0-.781.082,2,2,0,0,0-.594.23,1.147,1.147,0,0,0-.375.355.843.843,0,0,0-.133.465.888.888,0,0,0,.148.5,1.7,1.7,0,0,0,.422.422,4.477,4.477,0,0,0,.664.391q.391.191.883.395a9.837,9.837,0,0,1,1.207.6,4.291,4.291,0,0,1,.918.715,2.785,2.785,0,0,1,.586.91,3.634,3.634,0,0,1-.152,2.766,2.886,2.886,0,0,1-.965,1.031,4.184,4.184,0,0,1-1.418.566,8.2,8.2,0,0,1-1.707.172,9.492,9.492,0,0,1-1.754-.156A5.3,5.3,0,0,1,58.156,56.57ZM70.164,57H67.641V45.8h2.523Zm10.414-9.148h-3.2V57H74.852V47.852h-3.18V45.8h8.906ZM86.227,57.2A5.215,5.215,0,0,1,82.3,55.629a5.624,5.624,0,0,1-1.516-4.082,6.026,6.026,0,0,1,1.539-4.3,5.328,5.328,0,0,1,4.078-1.641,5.085,5.085,0,0,1,3.879,1.57,5.79,5.79,0,0,1,1.48,4.141,5.929,5.929,0,0,1-1.535,4.258A5.269,5.269,0,0,1,86.227,57.2Zm.109-9.414a2.54,2.54,0,0,0-2.109,1,4.153,4.153,0,0,0-.781,2.637,4.077,4.077,0,0,0,.781,2.633,2.7,2.7,0,0,0,4.117.027,4.032,4.032,0,0,0,.766-2.613,4.369,4.369,0,0,0-.742-2.711A2.42,2.42,0,0,0,86.336,47.781Z" transform="translate(-8390.23 -6889)" fill="#12263f"/>
    <path id="Trazado_600368" data-name="Trazado 600368" d="M12.558,16.6a7.388,7.388,0,0,1-3.2.594A5.4,5.4,0,0,1,5.3,15.68a5.54,5.54,0,0,1-1.477-4.039,5.919,5.919,0,0,1,1.66-4.359A5.807,5.807,0,0,1,9.792,5.609a8.058,8.058,0,0,1,2.766.414v2.43A4.9,4.9,0,0,0,10,7.781a3.4,3.4,0,0,0-2.547.992,3.682,3.682,0,0,0-.969,2.688,3.611,3.611,0,0,0,.914,2.59,3.229,3.229,0,0,0,2.461.965,5.249,5.249,0,0,0,2.7-.719Zm6.492.594a5.215,5.215,0,0,1-3.922-1.566,5.624,5.624,0,0,1-1.516-4.082,6.026,6.026,0,0,1,1.539-4.3,5.328,5.328,0,0,1,4.078-1.641,5.085,5.085,0,0,1,3.879,1.57,5.79,5.79,0,0,1,1.48,4.141,5.929,5.929,0,0,1-1.535,4.258A5.269,5.269,0,0,1,19.05,17.2Zm.109-9.414a2.54,2.54,0,0,0-2.109,1,4.153,4.153,0,0,0-.781,2.637,4.077,4.077,0,0,0,.781,2.633,2.7,2.7,0,0,0,4.117.027,4.032,4.032,0,0,0,.766-2.613A4.369,4.369,0,0,0,21.19,8.75,2.42,2.42,0,0,0,19.159,7.781ZM35.847,17h-2.9l-1.742-2.883q-.2-.328-.375-.586a3.255,3.255,0,0,0-.363-.441,1.445,1.445,0,0,0-.383-.281.972.972,0,0,0-.434-.1h-.68V17H26.448V5.8h4q4.078,0,4.078,3.047a3.155,3.155,0,0,1-.18,1.082,3.006,3.006,0,0,1-.508.895,3.219,3.219,0,0,1-.793.688,4.089,4.089,0,0,1-1.035.453v.031a1.606,1.606,0,0,1,.484.254,3.468,3.468,0,0,1,.453.41,5.723,5.723,0,0,1,.418.5q.2.27.363.527ZM28.972,7.688V10.8h1.094a1.813,1.813,0,0,0,1.3-.469,1.564,1.564,0,0,0,.5-1.18q0-1.469-1.758-1.469ZM46.292,17h-2.9l-1.742-2.883q-.2-.328-.375-.586a3.255,3.255,0,0,0-.363-.441,1.445,1.445,0,0,0-.383-.281.972.972,0,0,0-.434-.1h-.68V17H36.894V5.8h4q4.078,0,4.078,3.047a3.155,3.155,0,0,1-.18,1.082,3.006,3.006,0,0,1-.508.895,3.219,3.219,0,0,1-.793.688,4.089,4.089,0,0,1-1.035.453v.031a1.606,1.606,0,0,1,.484.254,3.468,3.468,0,0,1,.453.41,5.723,5.723,0,0,1,.418.5q.2.27.363.527ZM39.417,7.688V10.8h1.094a1.813,1.813,0,0,0,1.3-.469,1.564,1.564,0,0,0,.5-1.18q0-1.469-1.758-1.469ZM54.058,17H47.339V5.8H53.8V7.852H49.862v2.492h3.664v2.047H49.862v2.563h4.2Zm10.992-.75a8.063,8.063,0,0,1-4.078.945,5.9,5.9,0,0,1-4.262-1.5,5.443,5.443,0,0,1-1.559-4.121,5.753,5.753,0,0,1,1.7-4.3,6.205,6.205,0,0,1,4.531-1.664,9.2,9.2,0,0,1,3.141.492V8.469a6.242,6.242,0,0,0-3.172-.75A3.405,3.405,0,0,0,58.8,8.738a3.745,3.745,0,0,0-.988,2.723,3.756,3.756,0,0,0,.887,2.672,3.125,3.125,0,0,0,2.395.945,3.333,3.333,0,0,0,1.438-.258V12.633H60.284V10.617H65.05Zm4.7.75H67.229V5.8h2.523ZM81.7,17H78.8l-1.742-2.883q-.2-.328-.375-.586a3.255,3.255,0,0,0-.363-.441,1.445,1.445,0,0,0-.383-.281.972.972,0,0,0-.434-.1h-.68V17H72.3V5.8h4q4.078,0,4.078,3.047a3.155,3.155,0,0,1-.18,1.082,3.006,3.006,0,0,1-.508.895,3.219,3.219,0,0,1-.793.688,4.089,4.089,0,0,1-1.035.453v.031a1.606,1.606,0,0,1,.484.254,3.469,3.469,0,0,1,.453.41,5.722,5.722,0,0,1,.418.5q.2.27.363.527ZM74.823,7.688V10.8h1.094a1.813,1.813,0,0,0,1.3-.469,1.564,1.564,0,0,0,.5-1.18q0-1.469-1.758-1.469ZM91.894,17.2a5.215,5.215,0,0,1-3.922-1.566,5.624,5.624,0,0,1-1.516-4.082A6.026,6.026,0,0,1,88,7.25a5.328,5.328,0,0,1,4.078-1.641,5.085,5.085,0,0,1,3.879,1.57,5.79,5.79,0,0,1,1.48,4.141A5.929,5.929,0,0,1,95.9,15.578,5.269,5.269,0,0,1,91.894,17.2ZM92,7.781a2.54,2.54,0,0,0-2.109,1,4.153,4.153,0,0,0-.781,2.637,4.077,4.077,0,0,0,.781,2.633,2.7,2.7,0,0,0,4.117.027,4.032,4.032,0,0,0,.766-2.613,4.369,4.369,0,0,0-.742-2.711A2.42,2.42,0,0,0,92,7.781ZM27.022,37h-2.75l-.8-2.492H19.491L18.7,37H15.968l4.078-11.2h2.992ZM22.9,32.57l-1.2-3.766a4.907,4.907,0,0,1-.187-1.008h-.062a4.273,4.273,0,0,1-.2.977l-1.219,3.8Zm10.8-.016A5.087,5.087,0,0,1,32.659,36a3.792,3.792,0,0,1-3.02,1.2,4.3,4.3,0,0,1-1.633-.3V34.523a2.344,2.344,0,0,0,1.453.492q1.727,0,1.727-2.562V25.8H33.7Zm11.586-.406q0,5.047-4.7,5.047-4.563,0-4.562-4.93V25.8h2.531v6.5q0,2.719,2.125,2.719,2.086,0,2.086-2.625V25.8h2.523ZM47.21,36.57v-2.5a4.8,4.8,0,0,0,1.477.855,4.746,4.746,0,0,0,1.609.285,3.569,3.569,0,0,0,.832-.086,1.949,1.949,0,0,0,.594-.238,1.039,1.039,0,0,0,.355-.359.9.9,0,0,0,.117-.449.971.971,0,0,0-.187-.586,2.018,2.018,0,0,0-.512-.477,5.347,5.347,0,0,0-.77-.422q-.445-.2-.961-.414a4.9,4.9,0,0,1-1.957-1.336,2.917,2.917,0,0,1-.645-1.906,3.036,3.036,0,0,1,.352-1.5,2.986,2.986,0,0,1,.957-1.035,4.291,4.291,0,0,1,1.4-.6,7.206,7.206,0,0,1,1.688-.191,10.15,10.15,0,0,1,1.551.105,6.1,6.1,0,0,1,1.246.324v2.336a3.768,3.768,0,0,0-.613-.344,4.859,4.859,0,0,0-.684-.246,5.214,5.214,0,0,0-.7-.145,4.949,4.949,0,0,0-.66-.047,3.443,3.443,0,0,0-.781.082,2,2,0,0,0-.594.23,1.147,1.147,0,0,0-.375.355.843.843,0,0,0-.133.465.888.888,0,0,0,.148.5,1.7,1.7,0,0,0,.422.422,4.477,4.477,0,0,0,.664.391q.391.191.883.395a9.837,9.837,0,0,1,1.207.6,4.291,4.291,0,0,1,.918.715,2.785,2.785,0,0,1,.586.91,3.634,3.634,0,0,1-.152,2.766,2.886,2.886,0,0,1-.965,1.031,4.184,4.184,0,0,1-1.418.566,8.2,8.2,0,0,1-1.707.172,9.492,9.492,0,0,1-1.754-.156A5.3,5.3,0,0,1,47.21,36.57Zm17.352-8.719h-3.2V37H58.835V27.852h-3.18V25.8h8.906ZM74.8,37h-2.75l-.8-2.492H67.272L66.483,37H63.749l4.078-11.2h2.992Zm-4.125-4.43-1.2-3.766a4.908,4.908,0,0,1-.187-1.008h-.062a4.273,4.273,0,0,1-.2.977l-1.219,3.8ZM85.6,37H82.7L80.96,34.117q-.2-.328-.375-.586a3.255,3.255,0,0,0-.363-.441,1.445,1.445,0,0,0-.383-.281.972.972,0,0,0-.434-.1h-.68V37H76.2V25.8h4q4.078,0,4.078,3.047a3.155,3.155,0,0,1-.18,1.082,3.006,3.006,0,0,1-.508.895,3.219,3.219,0,0,1-.793.688,4.089,4.089,0,0,1-1.035.453v.031a1.606,1.606,0,0,1,.484.254,3.469,3.469,0,0,1,.453.41,5.722,5.722,0,0,1,.418.5q.2.27.363.527Zm-6.875-9.312V30.8h1.094a1.813,1.813,0,0,0,1.3-.469,1.564,1.564,0,0,0,.5-1.18q0-1.469-1.758-1.469Z" transform="translate(-8389.486 -7889.539)" fill="#12263f"/>
    <path id="Trazado_166899" data-name="Trazado 166899" d="M-7706-6086.461h131.863v-106.076" transform="translate(-761.076 -1635)" fill="none" stroke="#083142" stroke-linecap="round" stroke-width="1"/>
    <path id="Trazado_166890" data-name="Trazado 166890" d="M-7706-6192.539h23.3" transform="translate(-2368.777 -15641.217) rotate(-90)" fill="none" stroke="#083142" stroke-linecap="round" stroke-width="1"/>
    <path id="Trazado_166907" data-name="Trazado 166907" d="M-7706-6192.539h23.3" transform="translate(-2368.777 -15197.217) rotate(-90)" fill="none" stroke="#083142" stroke-linecap="round" stroke-width="1"/>
    <path id="Trazado_166906" data-name="Trazado 166906" d="M-7706-6192.539h23.3" transform="translate(-2368.777 -15345.217) rotate(-90)" fill="none" stroke="#083142" stroke-linecap="round" stroke-width="1"/>
    <path id="Trazado_166908" data-name="Trazado 166908" d="M-7706-6192.539h23.3" transform="translate(-2368.777 -15049.217) rotate(-90)" fill="none" stroke="#083142" stroke-linecap="round" stroke-width="1"/>
    <path id="Trazado_166909" data-name="Trazado 166909" d="M-7706-6192.539h23.3" transform="translate(-2368.777 -14901.217) rotate(-90)" fill="none" stroke="#083142" stroke-linecap="round" stroke-width="1"/>
    <path id="Trazado_166910" data-name="Trazado 166910" d="M-7706-6192.539h23.3" transform="translate(-2368.777 -14753.217) rotate(-90)" fill="none" stroke="#083142" stroke-linecap="round" stroke-width="1"/>
    <path id="Trazado_166897" data-name="Trazado 166897" d="M-7706-6192.538h151.983v63.362" transform="translate(-16115.295 -13050.116) rotate(180)" fill="none" stroke="#083142" stroke-linecap="round" stroke-width="1"/>
    <path id="Trazado_600373" data-name="Trazado 600373" d="M4.5,0,9,8H0Z" transform="translate(-8339.713 -7828.539)" fill="#083142"/>
    <path id="Trazado_600353" data-name="Trazado 600353" d="M4.5,0,9,8H0Z" transform="translate(-8556.777 -7928.723) rotate(180)" fill="#083142"/>
    <path id="Trazado_600354" data-name="Trazado 600354" d="M4.5,0,9,8H0Z" transform="translate(-8556.777 -7484.723) rotate(180)" fill="#083142"/>
    <g id="Grupo_110690" data-name="Grupo 110690" transform="translate(356.924 45)">
      <path id="Trazado_166905" data-name="Trazado 166905" d="M-7706-6192.539h23.3" transform="translate(-2725.701 -15538.217) rotate(-90)" fill="none" stroke="#083142" stroke-linecap="round" stroke-width="1"/>
      <path id="Polígono_12" data-name="Polígono 12" d="M4.5,0,9,8H0Z" transform="translate(-8913.701 -7825.723) rotate(180)" fill="#083142"/>
    </g>
    <path id="Trazado_600355" data-name="Trazado 600355" d="M4.5,0,9,8H0Z" transform="translate(-8556.777 -7632.723) rotate(180)" fill="#083142"/>
    <path id="Trazado_600356" data-name="Trazado 600356" d="M4.5,0,9,8H0Z" transform="translate(-8556.777 -7336.723) rotate(180)" fill="#083142"/>
    <path id="Trazado_600357" data-name="Trazado 600357" d="M4.5,0,9,8H0Z" transform="translate(-8556.777 -7188.723) rotate(180)" fill="#083142"/>
    <path id="Trazado_600369" data-name="Trazado 600369" d="M4.5,0,9,8H0Z" transform="translate(-8556.777 -7040.723) rotate(180)" fill="#083142"/>
    <path id="Trazado_600374" data-name="Trazado 600374" d="M4.5,0,9,8H0Z" transform="translate(-8404.23 -6862) rotate(90)" fill="#083142"/>
    <path id="Trazado_166911" data-name="Trazado 166911" d="M-7706-6192.539h129.725v106.068" transform="translate(-758.938 -1824.961)" fill="none" stroke="#083142" stroke-linecap="round" stroke-width="1"/>
    <path id="Trazado_600375" data-name="Trazado 600375" d="M4.5,0,9,8H0Z" transform="translate(-8330.713 -7909.808) rotate(180)" fill="#083142"/>
    <g id="Grupo_110691" data-name="Grupo 110691" transform="translate(-611.559 -16787.74) rotate(-90)">
      <path id="Trazado_166905-2" data-name="Trazado 166905" d="M0,0H57.23" transform="translate(-8918.24 -7798.287) rotate(-90)" fill="none" stroke="#083142" stroke-linecap="round" stroke-width="1"/>
      <path id="Polígono_12-2" data-name="Polígono 12" d="M4.5,0,9,8H0Z" transform="translate(-8913.701 -7790.287) rotate(180)" fill="#083142"/>
    </g>
    <path id="Trazado_166912" data-name="Trazado 166912" d="M-7706-6043.614h131.863v-148.923" transform="translate(-761.076 -1528.924)" fill="none" stroke="#083142" stroke-linecap="round" stroke-width="1"/>
    <path id="Trazado_166913" data-name="Trazado 166913" d="M-7706-6045.537h131.863v-147" transform="translate(-761.076 -1380.001)" fill="none" stroke="#083142" stroke-linecap="round" stroke-width="1"/>
    <path id="Trazado_166914" data-name="Trazado 166914" d="M-7706-6045.537h131.863v-147" transform="translate(-761.076 -1232.001)" fill="none" stroke="#083142" stroke-linecap="round" stroke-width="1"/>
    <path id="Trazado_166915" data-name="Trazado 166915" d="M-7706-6045.537h131.863v-147" transform="translate(-761.076 -1084.924)" fill="none" stroke="#083142" stroke-linecap="round" stroke-width="1"/>
    <path id="Trazado_166916" data-name="Trazado 166916" d="M-7706-6043.075h131.863v-149.461" transform="translate(-761.076 -936.924)" fill="none" stroke="#083142" stroke-linecap="round" stroke-width="1"/>
  </g>
</svg>
